<svg width="82" height="82" viewBox="0 0 82 82" fill="none" xmlns="http://www.w3.org/2000/svg">
<circle cx="41" cy="41" r="41" fill="#009D4E"/>
<path d="M57.0411 22.854C57.8269 22.0526 58.8725 21.6095 59.9574 21.6183C61.0424 21.6271 62.0817 22.0871 62.856 22.9012C63.6304 23.7153 64.0793 24.8198 64.108 25.9817C64.1367 27.1437 63.7429 28.2721 63.0097 29.1289L40.7527 58.9493C40.37 59.3909 39.9081 59.7453 39.3946 59.9913C38.8811 60.2373 38.3266 60.3699 37.7642 60.381C37.2018 60.3922 36.6431 60.2817 36.1214 60.0563C35.5998 59.8308 35.1259 59.495 34.7282 59.0688L19.9683 43.2562C19.5572 42.8459 19.2276 42.3511 18.9989 41.8013C18.7702 41.2515 18.6473 40.658 18.6374 40.0562C18.6275 39.4544 18.7308 38.8566 18.9412 38.2985C19.1516 37.7404 19.4648 37.2335 19.8621 36.8079C20.2594 36.3822 20.7326 36.0467 21.2535 35.8213C21.7745 35.5959 22.3324 35.4852 22.8942 35.4958C23.4559 35.5064 24.0099 35.6381 24.5231 35.8831C25.0363 36.1281 25.4982 36.4813 25.8812 36.9216L37.562 49.4295L56.9351 22.9855C56.97 22.9395 57.0072 22.8956 57.0466 22.854H57.0411Z" fill="white"/>
</svg>
