<svg width="31" height="27" viewBox="0 0 31 27" fill="none" xmlns="http://www.w3.org/2000/svg">
<path fill-rule="evenodd" clip-rule="evenodd" d="M0 5.45747C0.167335 5.12705 0.294654 4.76813 0.509278 4.47226C1.1095 3.6465 1.95224 3.28576 2.96655 3.28879C4.59624 3.29364 6.22594 3.28576 7.85563 3.29485C8.07874 3.29607 8.18363 3.2318 8.25456 3.01354C8.42311 2.49819 8.62197 1.99255 8.81295 1.48509C9.04031 0.883659 9.37861 0.642358 10.0213 0.63872C10.9695 0.633264 11.9177 0.633871 12.866 0.64054C13.04 0.641753 13.1546 0.599917 13.2576 0.446527C13.4595 0.148235 13.7693 0.0136407 14.1216 0.00757789C14.803 -0.00333523 15.4851 -0.000908761 16.1666 0.00515408C16.4721 0.00818551 16.6595 0.183401 16.6631 0.440465C16.6668 0.708443 16.474 0.887297 16.1514 0.890329C15.5488 0.896392 14.9461 0.903666 14.3441 0.887297C14.0755 0.879415 13.9342 0.96672 13.8445 1.22863C13.5711 2.02105 13.2722 2.80376 12.9836 3.59072C12.7762 4.15699 12.7447 4.17942 12.1536 4.17942C9.11124 4.18003 6.06891 4.18245 3.02657 4.1776C2.31722 4.17579 1.70548 4.37101 1.25319 4.94819C0.994913 5.2774 0.847585 5.65512 0.841523 6.0686C0.827578 6.98652 0.837279 7.90504 0.837279 8.87934C1.40597 8.41007 2.02196 8.13482 2.76163 8.11239C2.76163 7.74559 2.76102 7.40122 2.76163 7.05806C2.76466 6.16197 3.17329 5.75273 4.06332 5.75212C7.98477 5.75152 11.9062 5.7503 15.8277 5.75637C16.0465 5.75637 16.1763 5.71939 16.2696 5.489C16.4606 5.0167 16.8638 4.81905 17.3561 4.81663C18.739 4.81057 20.122 4.81238 21.5049 4.81602C21.8578 4.81663 22.0548 4.98396 22.0578 5.25921C22.0609 5.54295 21.8602 5.7018 21.4843 5.70241C20.1608 5.70423 18.8373 5.7115 17.5137 5.69634C17.2142 5.69331 17.0718 5.7982 16.9754 6.07527C16.6904 6.89497 16.3818 7.70557 16.0811 8.5192C15.9253 8.93997 15.838 9.0006 15.3827 9.0006C11.2539 9.0012 7.12506 9.00545 2.99626 8.99756C2.11654 8.99574 1.4278 9.31283 1.04402 10.1216C0.909426 10.4054 0.840916 10.7473 0.84031 11.0638C0.827578 15.7255 0.833641 20.3884 0.827578 25.0502C0.826972 25.3375 0.936709 25.4309 1.21317 25.4297C2.94169 25.423 4.67021 25.4261 6.39873 25.4273C6.50725 25.4273 6.64306 25.397 6.71763 25.4497C6.85041 25.5425 7.02805 25.6843 7.03472 25.8141C7.0426 25.9602 6.91043 26.1475 6.78614 26.2549C6.70005 26.3294 6.52362 26.3143 6.38721 26.3143C4.6884 26.3179 2.98959 26.307 1.29017 26.3221C0.711778 26.327 0.271009 26.1409 0.00121248 25.6134C-8.79437e-08 18.8939 0 12.1757 0 5.45747ZM3.65408 8.11118C3.80019 8.11118 3.91599 8.11118 4.03179 8.11118C7.32028 8.11118 10.6094 8.11118 13.8979 8.11118C14.2926 8.11118 14.6878 8.11724 15.0831 8.10633C15.165 8.1039 15.2941 8.05843 15.3184 7.99841C15.4942 7.56189 15.6488 7.11687 15.8228 6.64094C15.6979 6.64094 15.6112 6.64094 15.5245 6.64094C11.7025 6.64094 7.88049 6.64094 4.05847 6.64094C3.99905 6.64094 3.92448 6.61972 3.88386 6.64761C3.79777 6.70763 3.66923 6.78948 3.66438 6.86769C3.64256 7.26905 3.65408 7.67223 3.65408 8.11118ZM12.7871 1.53542C11.7928 1.53542 10.8392 1.53178 9.88486 1.54209C9.81756 1.54269 9.71631 1.62514 9.69024 1.69244C9.49078 2.20475 9.30647 2.72191 9.11973 3.23059C9.15914 3.25848 9.1743 3.27848 9.19006 3.27848C10.1274 3.28333 11.0653 3.28818 12.0026 3.28394C12.0645 3.28333 12.1621 3.22755 12.1827 3.1742C12.3864 2.64249 12.5786 2.10653 12.7871 1.53542Z" fill="#263238"/>
<path fill-rule="evenodd" clip-rule="evenodd" d="M29.4023 4.81296C29.4023 4.08057 29.4023 3.36152 29.4023 2.64246C29.4023 2.18836 29.4035 1.73425 29.4023 1.27953C29.4011 0.927284 29.3665 0.892725 29.007 0.892725C25.5197 0.892119 22.0323 0.892119 18.545 0.892119C18.4461 0.892119 18.3461 0.899396 18.2491 0.884845C18.0054 0.849074 17.852 0.714479 17.8405 0.456808C17.8289 0.218538 17.9999 0.0384707 18.2594 0.0075502C18.3376 -0.00154406 18.417 0.00330623 18.4965 0.00330623C22.0032 0.00269995 25.5106 0.00269995 29.0173 0.00330623C29.8625 0.00330623 30.2917 0.433162 30.2917 1.27893C30.2923 9.19215 30.2923 17.1054 30.2917 25.018C30.2917 25.8838 29.8649 26.3142 29.0028 26.3142C22.3051 26.3154 15.6069 26.3148 8.90868 26.3142C8.80985 26.3142 8.70921 26.3173 8.61402 26.2973C8.37272 26.2463 8.22418 26.1002 8.23934 25.8419C8.2545 25.5873 8.40971 25.4521 8.6601 25.4309C8.76802 25.4212 8.87715 25.4254 8.98568 25.4254C15.6245 25.4254 22.2633 25.4254 28.9021 25.4248C29.395 25.4248 29.4029 25.4169 29.4029 24.9313C29.4029 18.6878 29.4029 12.4443 29.4029 6.20075C29.4029 5.70966 29.395 5.70178 28.907 5.70178C27.2373 5.70178 25.5676 5.70178 23.8985 5.70117C23.7899 5.70117 23.6547 5.73148 23.5789 5.67934C23.4456 5.58719 23.2667 5.44713 23.2594 5.31739C23.2503 5.17188 23.3886 4.99727 23.5032 4.87177C23.5601 4.80932 23.7075 4.81478 23.8142 4.81478C25.6609 4.81235 27.5077 4.81296 29.4023 4.81296Z" fill="#263238"/>
<path fill-rule="evenodd" clip-rule="evenodd" d="M20.8904 22.0921C20.9444 21.7768 21.0068 21.3676 21.0887 20.962C21.1293 20.7595 21.0984 20.6103 20.9341 20.4672C20.6673 20.2332 20.4206 19.9761 20.169 19.7251C19.8882 19.445 19.7749 19.1104 19.8955 18.7254C20.0162 18.3398 20.2975 18.1276 20.6916 18.0651C21.0517 18.0082 21.4118 17.9481 21.7744 17.9075C21.9599 17.8875 22.0775 17.8202 22.1564 17.6432C22.3006 17.3194 22.4704 17.0072 22.6244 16.6877C22.802 16.3178 23.0906 16.0911 23.5011 16.085C23.9255 16.079 24.2232 16.3099 24.4087 16.6877C24.5651 17.0054 24.7361 17.3182 24.8755 17.6438C24.9544 17.8263 25.0738 17.8851 25.2563 17.9075C25.6279 17.9512 26.0014 17.9978 26.3676 18.0736C27.1849 18.2428 27.4522 19.0916 26.8811 19.7015C26.6113 19.9895 26.31 20.2472 26.042 20.5364C25.9705 20.614 25.9274 20.7601 25.9402 20.8656C25.9856 21.2372 26.0639 21.6046 26.1245 21.9739C26.1875 22.3631 26.096 22.7056 25.7728 22.9494C25.443 23.1986 25.0811 23.2119 24.7155 23.0252C24.3814 22.856 24.0474 22.685 23.7218 22.5013C23.5775 22.4195 23.4635 22.4122 23.315 22.4965C22.973 22.6917 22.6268 22.8845 22.2679 23.0458C21.5889 23.3519 20.8777 22.9015 20.8904 22.0921ZM20.7601 18.954C21.1317 19.3523 21.4664 19.7258 21.8174 20.0835C22.0072 20.2769 22.0794 20.4788 22.0254 20.7504C21.9278 21.2384 21.8556 21.7319 21.7611 22.2909C21.906 22.2267 21.9927 22.1933 22.0751 22.1509C22.4164 21.9739 22.7651 21.8083 23.0931 21.6095C23.3914 21.4294 23.6551 21.4409 23.9497 21.6162C24.288 21.818 24.6445 21.9884 24.9956 22.1691C25.0665 22.2061 25.1453 22.2261 25.2684 22.2709C25.189 21.7968 25.1441 21.3742 25.0417 20.9668C24.9319 20.5321 25.035 20.2156 25.3763 19.921C25.7001 19.6409 25.9735 19.302 26.2973 18.9588C25.8159 18.8854 25.3539 18.7927 24.8877 18.7502C24.5275 18.7181 24.3165 18.5544 24.1735 18.2313C23.9837 17.8026 23.76 17.3885 23.5162 16.8974C23.264 17.4049 23.0349 17.8366 22.8336 18.2804C22.7002 18.5744 22.4977 18.7114 22.1782 18.746C21.7016 18.7963 21.2287 18.883 20.7601 18.954Z" fill="#263238"/>
<path fill-rule="evenodd" clip-rule="evenodd" d="M25.0159 2.12228C25.8349 2.12228 26.6534 2.1235 27.4719 2.12168C27.7114 2.12107 27.9018 2.19746 27.9751 2.44361C28.0449 2.67946 27.9175 2.90803 27.6768 2.97351C27.5647 3.00382 27.4434 3.00988 27.3258 3.00988C25.787 3.01231 24.2483 3.01231 22.7096 3.01049C22.6016 3.00988 22.4919 3.00382 22.387 2.982C22.1493 2.93167 22.0335 2.77161 22.0481 2.53395C22.0626 2.29386 22.2033 2.14896 22.4416 2.1338C22.6968 2.11683 22.9545 2.12289 23.2109 2.12228C23.8118 2.12107 24.4138 2.12168 25.0159 2.12228Z" fill="#263238"/>
</svg>
