<svg width="241" height="120" viewBox="0 0 241 120" fill="none" xmlns="http://www.w3.org/2000/svg">
<line x1="-4.37114e-08" y1="119.5" x2="241" y2="119.5" stroke="black"/>
<path d="M157.519 28.395C157.128 27.3188 156.704 26.21 156.019 25.2643C155.335 24.3186 154.324 23.5686 153.182 23.4055C152.041 23.2751 150.769 23.8947 150.378 24.9708C150.215 22.4924 149.856 19.9488 148.617 17.7965C147.378 15.6441 145.062 13.9484 142.584 14.1114C140.236 14.2419 138.246 16.0029 137.138 18.0573C136.029 20.1118 135.638 22.4598 135.279 24.7752C134.398 23.699 132.54 24.0251 131.594 25.0687C130.681 26.1122 130.453 27.5797 130.257 28.982H158.106L157.519 28.395Z" fill="#D8D8D8"/>
<path d="M49.4476 13.8195C49.252 13.2977 49.0563 12.7759 48.7302 12.3194C48.4041 11.8628 47.9149 11.5041 47.3605 11.4389C46.8062 11.3736 46.1866 11.6671 46.0235 12.1889C45.9583 11.0149 45.7626 9.77571 45.1756 8.76478C44.5886 7.72123 43.4799 6.93858 42.3059 7.0038C41.1971 7.06902 40.2188 7.9169 39.697 8.89522C39.1752 9.87355 38.9796 11.0149 38.8165 12.1237C38.3926 11.6019 37.5121 11.765 37.0555 12.2867C36.599 12.7759 36.5012 13.4933 36.4033 14.1456H49.7411L49.4476 13.8195Z" fill="#D8D8D8"/>
<path d="M193.131 69.7452C192.935 69.2235 192.739 68.7017 192.413 68.2451C192.087 67.7886 191.598 67.4299 191.043 67.3646C190.489 67.2994 189.869 67.5929 189.706 68.1147C189.641 66.9407 189.445 65.7015 188.858 64.6906C188.272 63.647 187.163 62.8644 185.989 62.9296C184.88 62.9948 183.902 63.8427 183.38 64.821C182.858 65.7993 182.662 66.9407 182.499 68.0495C182.075 67.5277 181.195 67.6908 180.738 68.2125C180.282 68.7017 180.184 69.4191 180.086 70.0714H193.424L193.131 69.7452Z" fill="#D8D8D8"/>
<path d="M90.2111 24.8419C90.0154 24.3201 89.8197 23.7984 89.4936 23.3418C89.1675 22.8853 88.6784 22.5265 88.124 22.4613C87.5696 22.3961 86.95 22.6896 86.7869 23.2114C86.7217 22.0374 86.5261 20.7982 85.9391 19.7872C85.3521 18.7437 84.2433 17.961 83.0693 18.0263C81.9605 18.0915 80.9822 18.9394 80.4604 19.9177C79.9387 20.896 79.743 22.0374 79.58 23.1462C79.156 22.6244 78.2755 22.7874 77.819 23.3092C77.3624 23.7984 77.2646 24.5158 77.1667 25.168H90.5046L90.2111 24.8419Z" fill="#D8D8D8"/>
<path fill-rule="evenodd" clip-rule="evenodd" d="M41.1969 64.1035C41.5556 64.2992 50.3605 70.3648 50.3605 70.3648L49.6757 77.5392L54.1434 82.5938L60.4372 86.7354C60.4372 86.7354 62.2634 87.942 62.1656 90.1595C62.0352 92.3771 62.5569 100.595 62.5243 100.204C62.5243 100.008 60.9264 103.171 60.9264 103.171L60.209 119.607H69.6987L68.3943 104.737L69.3726 99.0297L68.8508 91.7249L76.123 83.4743L82.0256 81.4525L85.1236 77.2131L92.2002 74.9955L96.0156 71.3105L95.6569 62.049L93.4394 61.7881L94.646 71.1474C94.646 71.1474 87.4064 75.1586 86.8194 75.1586C86.2324 75.1586 83.3952 75.6151 83.3952 75.6151L84.2105 70.267L94.6134 63.2556L91.9719 62.4404L86.0367 66.5819L86.4933 63.5491L83.8518 62.5382C83.8518 62.5382 84.0801 67.5929 83.7214 67.5929C83.3626 67.5929 82.3517 68.9625 82.3517 68.9625L81.4386 75.9738L79.7102 79.4632L75.8295 81.6807L74.0033 76.887L75.7317 68.3103L80.982 62.9621L80.0689 60.8424L72.862 67.9516L71.7206 73.4954L72.3076 81.6807L67.1225 87.2572L64.1875 84.4853L63.8288 81.5177L66.6985 75.4521L63.6005 67.7233L64.644 60.9077L62.133 58.1357L60.7633 58.951L62.72 61.6251L60.6655 69.4517L63.307 75.2564L59.198 81.5177L53.4911 77.0826L53.2629 69.8104L50.8497 61.3316L47.7516 58.8532L46.2515 59.1141L48.893 62.4404L49.8061 66.6798L45.3058 64.1035L42.11 60.875L39.925 61.5273L41.1969 64.1035Z" fill="#AE7461"/>
<path d="M102.668 52.363C102.962 52.0369 103.157 51.6456 103.32 51.2216C105.146 50.9934 106.81 49.7542 107.527 48.0584C106.647 47.5692 105.701 47.1779 104.755 46.917C105.277 46.4931 105.701 45.9713 105.962 45.3517C105.146 44.8952 104.233 44.5364 103.353 44.3734C103.353 44.3408 103.385 44.2755 103.385 44.2429C104.527 44.3082 105.668 43.9494 106.516 43.1668C105.668 42.058 104.625 41.0471 103.385 40.5579C103.385 40.5253 103.385 40.5253 103.385 40.4927C104.364 39.5144 104.82 38.0143 104.494 36.6446C103.581 36.7751 102.668 37.0033 101.853 37.3621C101.657 37.1338 101.461 36.9055 101.266 36.6772C101.527 35.5032 101.266 34.2314 100.548 33.2531C99.8309 33.7097 99.1787 34.1988 98.6243 34.8184C98.233 34.6554 97.8091 34.4923 97.3851 34.3945C97.3199 33.8727 97.1242 33.3835 96.7981 32.9596C96.5372 33.1227 96.2763 33.2857 96.0481 33.4814C95.8198 33.3183 95.5915 33.1879 95.3632 33.0574C95.3959 32.7965 95.3959 32.5031 95.3306 32.2096C94.8089 32.2422 94.3197 32.34 93.8305 32.4704C93.7001 32.4378 93.5696 32.4052 93.4066 32.3726C93.6675 32.2748 93.8958 32.1443 94.0914 31.9813C95.0045 31.2964 95.4937 30.0572 95.3306 28.9485C94.4175 29.0137 93.537 29.2094 92.7544 29.6007C92.4283 29.1115 91.9717 28.7202 91.4499 28.5245C91.5804 27.4484 91.1238 26.3396 90.276 25.6548C89.689 26.2744 89.1998 26.9266 88.9063 27.6767C88.7759 26.6005 88.0584 25.5896 87.0475 25.133C86.6235 25.9157 86.2648 26.7635 86.167 27.6114C85.6126 27.5462 85.0582 27.644 84.5691 27.9375C85.2213 27.2527 85.2213 26.1439 84.6995 25.3613C85.1234 25.3613 85.5148 25.2635 85.8735 25.1004C86.917 24.6112 87.6671 23.5351 87.7323 22.3937C86.4605 22.198 85.1234 22.2633 84.0799 22.9155C84.0473 22.8503 83.9821 22.785 83.9168 22.7198L83.8842 22.6872C83.9169 22.6546 83.9495 22.622 83.9821 22.5894C84.5365 21.9372 84.6669 20.9588 84.3082 20.1762C83.3951 20.4697 82.5146 20.9588 82.0254 21.7741C81.895 21.3502 81.6341 20.9588 81.2428 20.7305C80.8188 20.4697 80.2971 20.4371 79.8079 20.5675C79.8405 20.0783 79.7753 19.5892 79.7101 19.1C79.2209 19.1326 78.7317 19.3283 78.3078 19.6544C77.9817 19.1978 77.4925 18.8391 76.9707 18.6435C76.7099 18.5456 76.449 18.513 76.1555 18.513C76.1881 17.6325 76.0576 16.7194 75.862 15.8389C74.7206 16.002 73.6771 16.6542 72.9922 17.5673C72.6335 17.2086 72.177 16.9477 71.6878 16.8499C71.0682 16.6868 70.4486 16.752 69.8616 16.9803C69.6659 16.165 69.1768 15.4476 68.6224 14.7954C67.8723 15.3498 67.4484 16.3281 67.5462 17.2738C67.1875 17.0781 66.7962 16.9477 66.4049 16.9151C66.5027 16.1324 66.3396 15.2845 66.0787 14.5019C65.133 14.7302 64.3504 15.5454 64.1221 16.4911C64.0895 16.6216 64.0569 16.7846 64.0569 16.9151C63.6655 15.9368 63.0133 14.9911 62.2959 14.1758C60.9915 15.1215 60.3066 16.8173 60.5349 18.3826C60.6001 18.8717 60.7632 19.3283 60.9915 19.7848C60.4697 19.8827 59.9479 20.0457 59.4587 20.2414C59.2631 19.2305 58.6761 18.2847 57.9587 17.5021C57.1108 18.1217 56.6216 19.1978 56.6542 20.2414C56.589 20.2088 56.5238 20.2088 56.4586 20.1762C56.2955 19.0674 55.6759 18.0891 54.9258 17.2086C53.9801 17.8934 53.4584 19.1326 53.654 20.3066C53.6866 20.4697 53.7192 20.6653 53.7845 20.8284C53.7519 20.861 53.7192 20.861 53.7192 20.8936C53.0344 19.8827 52.0235 19.1 50.9147 18.4804C50.0668 19.687 50.0016 21.3828 50.6864 22.6872C50.8821 23.0785 51.1756 23.4373 51.5017 23.7307C51.4691 23.8286 51.4365 23.8938 51.4039 23.9916C50.2625 23.8938 49.0559 24.1873 47.9145 24.6112C48.3059 26.0461 49.5451 27.1875 50.9799 27.481C51.0452 27.481 51.0778 27.5136 51.143 27.5136C50.7191 28.068 50.4908 28.7528 50.5234 29.4376C50.3929 28.7854 50.0342 28.1332 49.6103 27.5788C49.0559 27.9049 48.632 28.4919 48.4689 29.1115C48.208 28.3615 47.8167 27.644 47.3275 26.9918C46.2188 27.644 45.5339 28.9485 45.5992 30.2203C45.5992 30.5138 45.6644 30.7747 45.7622 31.0682C45.2731 30.7421 44.6861 30.5464 44.0665 30.416C43.773 31.2965 44.0012 32.34 44.6534 33.0248C44.6534 33.0574 44.6861 33.0574 44.7187 33.0574C44.4578 33.4488 44.2621 33.8727 44.2295 34.3293C43.8708 33.9053 43.3164 33.677 42.762 33.677C42.5337 32.6009 41.8815 31.6226 41.0989 30.7747C40.1205 31.5247 39.5988 32.8618 39.7944 34.101C39.7944 34.1336 39.827 34.1988 39.827 34.2314C39.1422 33.6444 38.2617 33.2531 37.3812 32.9922C37.1204 33.6444 37.0877 34.4271 37.2508 35.1445C36.7616 34.5901 36.142 34.101 35.4572 33.677C34.7724 34.6228 34.6093 35.9272 35.0333 37.0033C34.9354 37.036 34.8376 37.0686 34.7398 37.1012C33.5332 36.612 32.0983 36.7751 30.7939 37.1664C31.0221 38.2099 31.7722 39.123 32.7179 39.5796C32.6527 39.9383 32.6527 40.297 32.6853 40.6558C32.294 40.4601 31.87 40.297 31.4461 40.134C31.0874 40.9819 31.0874 41.9602 31.4135 42.8081C30.6308 42.1232 29.6199 41.6341 28.5763 41.2754C27.9893 42.6124 28.2176 44.2755 29.1307 45.4495C29.4242 45.8083 29.7503 46.1018 30.1416 46.33C29.3916 46.2974 28.6089 46.3626 27.8589 46.5257C28.0219 47.9932 29.0329 49.3302 30.4025 49.8846C30.5004 49.9172 30.5982 49.9498 30.696 49.9824C30.696 50.0803 30.6634 50.1455 30.6634 50.2433C29.6525 49.9824 28.5111 50.0803 27.598 50.602C28.185 51.9065 29.0329 53.1457 30.1742 53.8957C30.1742 53.9936 30.1743 54.0914 30.1416 54.1892C28.935 53.4718 27.3371 53.4718 26.0979 54.1566C26.8479 55.7872 27.9567 57.3199 29.6199 57.8742C28.4459 58.233 27.4676 59.1461 27.0436 60.2875C27.6632 60.581 28.3154 60.8418 28.9677 61.0049C28.772 61.1027 28.5763 61.2332 28.3807 61.3962C27.2393 62.3093 26.6523 63.9073 26.9458 65.3421C27.9241 65.2443 28.9024 65.016 29.7829 64.6247C29.3916 65.7661 29.5546 67.0379 30.2069 68.0488C31.0874 67.5597 31.9352 66.9727 32.5874 66.2552C32.7179 66.4835 32.8483 66.7118 33.0114 66.9401C32.1961 68.3749 31.707 70.2664 31.7722 71.8969C32.8809 71.3751 33.9897 70.5925 34.9028 69.288C34.9354 69.3206 34.968 69.3533 34.968 69.3533C34.5115 71.1795 35.0985 73.2339 36.4681 74.5384C37.2834 73.7883 38.0335 72.973 38.6204 72.0599C38.5226 73.6253 39.1422 75.2232 40.2836 76.2668C41.0336 75.5819 41.7511 74.7993 42.3055 73.984C42.5664 74.7993 43.2186 75.4841 44.0338 75.7776C44.3599 75.0275 44.6208 74.2449 44.6208 73.4622C45.11 73.5274 45.5992 73.5927 46.0883 73.6253C45.6644 74.9297 45.7622 76.3646 46.3492 77.5712C48.045 76.919 49.6755 76.0059 50.7191 74.6036C51.0778 76.0385 52.0561 77.3429 53.3605 78.0277C53.9149 77.1798 54.3715 76.2994 54.6976 75.3863C55.1541 76.919 56.3281 78.256 57.8608 78.843C58.4804 77.6038 58.937 76.2667 59.0674 74.9297C59.4914 76.1363 60.3392 77.2125 61.448 77.8647C61.9372 77.1472 62.3611 76.3972 62.7198 75.6145C63.3394 77.2451 64.8069 78.5495 66.5353 78.9408C66.9266 77.7342 67.1549 76.4624 67.1549 75.2558C67.6115 75.8754 68.2963 76.332 69.0463 76.495C69.3398 75.6145 69.5029 74.6688 69.405 73.7883C69.5681 73.5601 69.6333 73.2666 69.5681 72.9731C69.8942 73.1361 70.2529 73.2013 70.6116 73.2666C70.6443 73.397 70.6769 73.4948 70.6769 73.6253C71.166 75.4841 72.764 76.9842 74.6228 77.4081C75.0793 75.9733 75.3402 74.4731 75.1772 73.0383C75.8294 74.2775 77.1338 75.1254 78.5035 75.2558C78.6339 74.4732 78.6991 73.6905 78.6665 72.9404C78.7643 73.0383 78.8622 73.1361 78.96 73.2339C80.3949 74.5384 82.5472 74.9623 84.3408 74.3101C84.0147 73.0709 83.5255 71.8317 82.8407 70.7881C82.9711 70.7555 83.1016 70.7229 83.232 70.6903C83.8842 72.1252 85.2213 73.2992 86.754 73.6905C87.1453 72.5817 87.4388 71.4077 87.4714 70.2664C88.1889 71.4403 89.3629 72.3534 90.6999 72.7122C91.0912 71.5708 91.3847 70.3968 91.4499 69.2228C91.9065 70.2664 92.8522 71.1142 93.9936 71.4077C94.4501 70.1359 94.711 68.7663 94.3849 67.4944C94.8741 68.0162 95.4937 68.4075 96.1459 68.6684C97.9395 69.3859 100.092 69.0271 101.559 67.7553C100.94 66.8748 100.222 66.0596 99.407 65.3747C100.287 65.5704 101.266 65.5704 102.081 65.3747C101.559 64.3638 100.809 63.4181 99.6353 62.7659C99.7657 62.4398 99.8309 62.0484 99.7983 61.7223C99.9288 61.7876 100.092 61.8528 100.222 61.918C102.016 62.6354 104.168 62.2767 105.636 61.0049C104.983 60.0918 104.201 59.2113 103.353 58.5265C104.82 58.0699 106.125 56.9612 106.744 55.5589C105.636 54.9719 104.462 54.4827 103.255 54.2545C103.32 53.6022 103.125 52.8848 102.668 52.363Z" fill="#455A64"/>
<g opacity="0.2">
<path d="M93.9935 71.3752C94.4501 70.1034 94.711 68.7337 94.3848 67.4619C94.874 67.9837 95.4936 68.375 96.1458 68.6359C97.9394 69.3533 100.092 68.9946 101.559 67.7228C100.94 66.8423 100.222 66.027 99.4069 65.3422C100.287 65.5379 101.266 65.5379 102.081 65.3422C101.559 64.3313 100.809 63.3856 99.6352 62.7333C99.7656 62.4072 99.8309 62.0159 99.7982 61.6898C99.9287 61.755 100.092 61.8202 100.222 61.8855C102.016 62.6029 104.168 62.2442 105.636 60.9723C104.983 60.0592 104.201 59.1788 103.353 58.4939C104.82 58.0374 106.125 56.9286 106.744 55.5264C106.353 55.3307 105.962 55.135 105.57 54.9394C104.592 55.5916 103.451 55.9829 102.244 55.9829C102.798 57.5808 102.309 59.5049 101.037 60.6136C99.7656 61.7224 97.7764 61.9507 96.2763 61.168C95.9502 63.2225 94.4501 65.0813 92.526 65.864C90.602 66.6466 88.254 66.3531 86.5583 65.1139C84.0798 69.1251 78.2425 70.5925 74.1335 68.212C73.3183 70.2338 71.3942 71.7665 69.2419 72.06C67.0896 72.3535 64.8069 71.4078 63.5024 69.6794C62.2306 71.3426 60.0131 72.2557 57.926 71.9622C55.8389 71.6687 53.9801 70.2012 53.1974 68.2446C49.6428 70.3969 44.2947 68.3098 43.1533 64.3313C40.8705 64.4617 38.5225 63.1247 37.5442 61.0376C36.5333 58.9505 36.9246 56.309 38.4573 54.5806C36.5333 54.8089 34.8701 52.9827 34.5114 51.0913C34.1527 49.1999 34.7723 47.2432 35.3919 45.417C34.3158 46.0692 32.783 45.3192 32.3591 44.1452C31.9352 42.9386 32.4896 41.6015 33.37 40.721C34.2831 39.8406 35.4897 39.3514 36.6637 38.9601C35.718 38.2752 35.2941 36.9708 35.6202 35.862C35.7832 35.275 36.1746 34.7859 36.6311 34.4272C36.2398 34.0684 35.8159 33.7749 35.3593 33.4814C34.6745 34.4272 34.5114 35.7316 34.9354 36.8077C34.8375 36.8404 34.7397 36.873 34.6419 36.9056C33.4353 36.4164 32.0004 36.5795 30.696 36.9708C30.9242 38.0143 31.6743 38.9275 32.62 39.384C32.5548 39.7427 32.5548 40.1014 32.5874 40.4602C32.1961 40.2645 31.7721 40.1014 31.3482 39.9384C30.9895 40.7863 30.9895 41.7646 31.3156 42.6125C30.5329 41.9276 29.522 41.4385 28.4784 41.0798C27.8914 42.4168 28.1197 44.08 29.0328 45.2539C29.3263 45.6127 29.6524 45.9062 30.0437 46.1344C29.2937 46.1018 28.511 46.167 27.761 46.3301C27.924 47.7976 28.935 49.1346 30.3046 49.689C30.4025 49.7216 30.5003 49.7542 30.5981 49.7868C30.5981 49.8847 30.5655 49.9499 30.5655 50.0477C29.5546 49.7868 28.4132 49.8847 27.5001 50.4065C28.0871 51.7109 28.935 52.9501 30.0764 53.7001C30.0764 53.798 30.0764 53.8958 30.0437 53.9936C28.8371 53.2762 27.2392 53.2762 26 53.961C26.75 55.5916 27.8588 57.1243 29.522 57.6787C28.348 58.0374 27.3697 58.9505 26.9457 60.0919C27.5653 60.3854 28.2175 60.6462 28.8698 60.8093C28.6741 60.9071 28.4784 61.0376 28.2828 61.2006C27.1414 62.1137 26.5544 63.7117 26.8479 65.1465C27.8262 65.0487 28.8045 64.8204 29.685 64.4291C29.2937 65.5705 29.4567 66.8423 30.109 67.8532C30.9895 67.3641 31.8373 66.7771 32.4895 66.0596C32.62 66.2879 32.7504 66.5162 32.9135 66.7445C32.0982 68.1793 31.6091 70.0708 31.6743 71.7013C32.783 71.1795 33.8918 70.3969 34.8049 69.0924C34.8375 69.1251 34.8701 69.1577 34.8701 69.1577C34.4136 70.9839 35.0006 73.0383 36.3702 74.3428C37.1855 73.5927 37.9356 72.7775 38.5225 71.8644C38.4247 73.4297 39.0443 75.0276 40.1857 76.0712C40.9357 75.3863 41.6532 74.6037 42.2076 73.7884C42.4685 74.6037 43.1207 75.2885 43.9359 75.582C44.2621 74.8319 44.5229 74.0493 44.5229 73.2666C45.0121 73.3318 45.5013 73.3971 45.9904 73.4297C45.5665 74.7341 45.6643 76.169 46.2513 77.3756C47.9471 76.7234 49.5776 75.8103 50.6212 74.408C50.9799 75.8429 51.9582 77.1473 53.2626 77.8321C53.817 76.9843 54.2736 76.1038 54.5997 75.1907C55.0562 76.7234 56.2302 78.0604 57.7629 78.6474C58.3825 77.4082 58.8391 76.0712 58.9695 74.7341C59.3935 75.9407 60.2413 77.0169 61.3501 77.6691C61.8393 76.9516 62.2632 76.2016 62.6219 75.4189C63.2415 77.0495 64.709 78.3539 66.4374 78.7452C66.8287 77.5386 67.057 76.2668 67.057 75.0602C67.5135 75.6798 68.1984 76.1364 68.9484 76.2994C69.2419 75.4189 69.405 74.4732 69.3071 73.5927C69.4702 73.3645 69.5354 73.071 69.4702 72.7775C69.7963 72.9405 70.155 73.0057 70.5137 73.071C70.5464 73.2014 70.579 73.2992 70.579 73.4297C71.0681 75.2885 72.6661 76.7886 74.5249 77.2125C74.9814 75.7777 75.2423 74.2776 75.0793 72.8427C75.7315 74.0819 77.0359 74.9298 78.4056 75.0602C78.536 74.2776 78.6012 73.4949 78.5686 72.7449C78.6664 72.8427 78.7643 72.9405 78.8621 73.0383C80.297 74.3428 82.4493 74.7667 84.2429 74.1145C83.9168 72.8753 83.4276 71.6361 82.7428 70.5925C82.8732 70.5599 83.0037 70.5273 83.1341 70.4947C83.7863 71.9296 85.1234 73.1036 86.6561 73.4949C87.0474 72.3861 87.3409 71.2122 87.3735 70.0708C88.091 71.2448 89.2649 72.1579 90.602 72.5166C90.9933 71.3752 91.2868 70.2012 91.352 69.0272C91.939 70.2664 92.8848 71.0817 93.9935 71.3752Z" fill="black"/>
</g>
<g opacity="0.2">
<path d="M53.2297 56.6045C52.4796 56.9958 51.5665 58.1698 51.4687 58.9851C51.3708 59.8004 51.8274 60.7135 52.6101 61.007C53.3927 61.3331 54.4036 60.9743 54.6971 60.1917C55.0885 60.9743 55.6102 61.7244 56.3603 62.2136C57.1103 62.7027 58.0887 62.8658 58.8713 62.4418C59.1322 62.3114 59.3605 62.0831 59.654 61.9853C60.3388 61.7244 61.0889 62.1483 61.8389 62.1483C62.8172 62.1809 63.7303 61.4309 63.926 60.4526C65.0348 60.6482 66.5023 59.8656 66.7305 58.7242V58.5285C65.6544 59.4416 63.9586 59.5395 62.7846 58.7568C63.1107 59.3438 62.752 60.1265 62.1324 60.3873C61.5128 60.6482 60.7954 60.4526 60.241 60.0939C59.6866 59.7025 59.2953 59.1807 58.9039 58.6264C58.8387 59.1155 58.7735 59.6047 58.5126 60.0612C58.2843 60.4852 57.8604 60.8765 57.3712 60.9091C56.8168 60.9417 56.2951 60.5178 56.0342 59.996C55.7733 59.4742 55.7733 58.8873 55.7407 58.3329C54.6971 58.9525 53.621 59.5395 52.5774 60.1591C51.9252 59.0503 52.2187 57.485 53.2297 56.6045Z" fill="black"/>
</g>
<path d="M53.2302 56.6035C52.2192 57.4514 51.9257 59.0493 52.5453 60.1907C53.5889 59.5711 54.6651 58.9841 55.7086 58.3645C55.7412 58.9189 55.7738 59.5059 56.0021 60.0277C56.263 60.5494 56.7521 60.9734 57.3391 60.9408C57.8283 60.9081 58.2522 60.5494 58.4805 60.0929C58.7088 59.6689 58.774 59.1472 58.8718 58.658C59.2632 59.1798 59.6545 59.7342 60.2089 60.1255C60.7633 60.5168 61.4807 60.6799 62.1003 60.419C62.7199 60.1581 63.0786 59.3428 62.7525 58.7884C63.9265 59.5711 65.6223 59.4733 66.6984 58.5602" fill="#455A64"/>
<path d="M66.6984 58.5902C66.6984 58.5902 66.6657 58.6228 66.6331 58.6555C66.6005 58.6881 66.5353 58.7533 66.4701 58.7859C66.307 58.8837 66.0788 59.0468 65.72 59.1772C65.3613 59.3077 64.9374 59.4055 64.383 59.3729C63.8612 59.3729 63.2742 59.2098 62.6872 58.8511L62.7524 58.7859C62.9807 59.1772 62.9155 59.699 62.622 60.0577C62.4916 60.2534 62.2959 60.4164 62.0676 60.5143C61.8393 60.6121 61.5785 60.6447 61.3176 60.6121C60.7958 60.5795 60.3066 60.3186 59.8827 59.9925C59.4588 59.6338 59.1326 59.1772 58.8065 58.7207L58.9044 58.6881C58.8718 58.9816 58.8065 59.3077 58.7413 59.6012C58.6435 59.8947 58.513 60.2208 58.2848 60.4817C58.0239 60.7752 57.6326 61.0034 57.2086 61.0034C56.7847 60.9708 56.426 60.7425 56.1977 60.4491C55.9368 60.1556 55.8063 59.7968 55.7411 59.4381C55.6759 59.0794 55.6433 58.7207 55.6433 58.362L55.7411 58.3946C54.5671 59.0794 53.491 59.6664 52.5779 60.1882L52.5453 60.2208L52.5127 60.1882C52.2192 59.6338 52.1539 59.0468 52.2192 58.5576C52.2518 58.0685 52.4148 57.6771 52.5779 57.351C52.7409 57.0575 52.904 56.8292 53.0344 56.7314C53.0996 56.6662 53.1649 56.6336 53.1975 56.601C53.2301 56.5684 53.2627 56.5684 53.2627 56.5684C53.2953 56.5684 52.9366 56.7966 52.6431 57.4162C52.48 57.7097 52.3496 58.1011 52.317 58.5902C52.2844 59.0794 52.3496 59.6338 52.6431 60.1555L52.5779 60.1229C53.491 59.6012 54.5671 58.9816 55.7411 58.2967L55.8063 58.2641V58.362C55.839 58.7207 55.839 59.0468 55.9042 59.4055C55.9694 59.7642 56.0998 60.0903 56.3281 60.3838C56.5564 60.6447 56.8825 60.873 57.2738 60.9056C57.6325 60.9382 57.9913 60.7099 58.2522 60.4164C58.4478 60.1882 58.5783 59.8947 58.6761 59.6012C58.7739 59.3077 58.8065 58.9816 58.8392 58.6881L58.8718 58.5576L58.9696 58.6881C59.2957 59.1446 59.6218 59.6012 60.0131 59.9273C60.4045 60.286 60.8936 60.5143 61.3828 60.5469C61.6111 60.5795 61.872 60.5469 62.0676 60.4491C62.2959 60.3512 62.4589 60.2208 62.5894 60.0251C62.8503 59.6664 62.9155 59.2098 62.7198 58.8511L62.622 58.6881L62.7851 58.7859C63.3394 59.1446 63.9264 59.2751 64.4156 59.3077C64.9374 59.3403 65.3613 59.2425 65.72 59.112C66.4049 58.8837 66.6984 58.5902 66.6984 58.5902Z" fill="#263238"/>
<path d="M38.0333 52.7217C35.8484 54.5479 33.5656 53.7326 31.7068 52.4282C32.359 51.3194 33.6634 50.602 34.9353 50.6672C36.2723 50.7324 37.5115 51.5477 38.0333 52.7217Z" fill="#455A64"/>
<path d="M38.7836 52.8855C38.4575 54.5486 37.1204 55.0052 35.7508 55.103C35.6529 54.3529 35.9791 53.5377 36.5987 53.0811C37.2183 52.6246 38.0988 52.5593 38.7836 52.8855Z" fill="#455A64"/>
<path d="M41.7834 53.9943C40.7725 56.6358 38.3593 57.0271 36.1091 56.7662C36.1417 55.4618 36.957 54.2226 38.0984 53.6682C39.2724 53.1138 40.7399 53.2443 41.7834 53.9943Z" fill="#455A64"/>
<path d="M43.251 62.1797C44.9468 64.4624 44.001 66.68 42.5662 68.4736C41.49 67.7561 40.8704 66.4191 41.0009 65.1147C41.1639 63.8428 42.077 62.6688 43.251 62.1797Z" fill="#455A64"/>
<path d="M42.8599 62.375C42.5664 64.4947 40.9033 65.1796 39.2075 65.3752C39.0118 64.4295 39.3706 63.386 40.1206 62.7664C40.8707 62.1467 41.9794 62.0163 42.8599 62.375Z" fill="#455A64"/>
<path d="M45.0448 63.7764C46.3492 65.4721 45.6644 67.1353 44.6208 68.4723C43.8056 67.9505 43.3164 66.9396 43.4142 65.9939C43.4795 65.0482 44.1643 64.1351 45.0448 63.7764Z" fill="#455A64"/>
<path d="M39.1422 60.1891C38.4574 61.9501 36.8595 62.211 35.3594 62.0479C35.392 61.2 35.9138 60.3521 36.6964 59.9934C37.4791 59.6021 38.4574 59.6999 39.1422 60.1891Z" fill="#455A64"/>
<path d="M41.7835 60.3525C41.4247 63.1897 39.2072 64.1354 36.9571 64.4289C36.8592 63.2549 37.5114 61.9505 38.1311 60.9396C38.8159 59.8308 40.5769 59.8634 41.7835 60.3525Z" fill="#455A64"/>
<path d="M43.023 30.1553C40.1858 30.0249 39.0444 27.8725 38.5879 25.655C39.8271 25.2637 41.262 25.655 42.1751 26.5681C43.0556 27.5138 43.4143 28.9487 43.023 30.1553Z" fill="#455A64"/>
<path d="M92.8193 27.7743C92.8193 24.9371 94.939 23.7305 97.124 23.1436C97.5479 24.3502 97.2544 25.8176 96.3739 26.7634C95.4934 27.7091 94.0585 28.1004 92.8193 27.7743Z" fill="#455A64"/>
<path d="M95.8523 31.3296C96.635 29.699 98.135 29.6012 99.5699 29.8621C99.4721 30.6774 98.9177 31.4274 98.1677 31.7209C97.4176 32.0144 96.4719 31.8513 95.8523 31.3296Z" fill="#455A64"/>
<path d="M38.6858 31.4918C37.2183 32.4049 35.9139 31.6875 34.9355 30.7418C35.4247 30.1222 36.2726 29.8287 37.0552 29.9917C37.8053 30.1222 38.4575 30.7418 38.6858 31.4918Z" fill="#455A64"/>
<path d="M54.1754 65.8301C55.6755 68.7651 53.8167 70.6239 51.6644 71.8957C50.8165 70.8521 50.5882 69.352 51.0774 68.1128C51.6318 66.8736 52.8384 65.9605 54.1754 65.8301Z" fill="#455A64"/>
<path d="M54.0781 66.3857C53.1976 69.3207 50.6866 69.9077 48.2408 69.8425C48.1755 68.4728 48.9256 67.0705 50.0996 66.3531C51.3062 65.6357 52.8715 65.6683 54.0781 66.3857Z" fill="#455A64"/>
<path d="M63.0788 67.4297C65.492 69.2885 65.1332 71.8648 64.1875 74.1149C62.8831 73.691 61.8396 72.4844 61.6113 71.1147C61.383 69.7124 61.97 68.245 63.0788 67.4297Z" fill="#455A64"/>
<path d="M61.9044 68.8965C62.9806 71.3097 61.6762 73.1033 60.0456 74.4403C59.2304 73.5598 58.9369 72.2554 59.2956 71.114C59.6543 69.9726 60.6978 69.0921 61.9044 68.8965Z" fill="#455A64"/>
<path d="M38.5551 48.9055C36.5985 50.96 34.2179 50.373 32.2612 49.2642C32.783 48.0902 34.0222 47.2424 35.294 47.1771C36.5985 47.1119 37.9029 47.7967 38.5551 48.9055Z" fill="#455A64"/>
<path d="M37.74 46.982C35.4247 48.6125 33.2071 47.6016 31.4788 46.1341C32.2288 45.0906 33.5659 44.5036 34.8703 44.6666C36.1421 44.8297 37.2835 45.7428 37.74 46.982Z" fill="#455A64"/>
<path d="M74.5579 62.6338C78.3407 64.5252 78.569 68.0798 77.8842 71.3735C75.9927 71.1452 74.2644 69.7756 73.5795 68.0146C72.8947 66.221 73.286 64.0687 74.5579 62.6338Z" fill="#455A64"/>
<path d="M77.9163 64.5273C80.5904 65.8644 80.7861 68.408 80.2643 70.756C78.8946 70.5929 77.688 69.6146 77.1989 68.3428C76.7097 67.071 77.0032 65.5383 77.9163 64.5273Z" fill="#455A64"/>
<path d="M85.1888 61.9492C88.1564 62.471 89.0042 64.8842 89.1999 67.2974C87.8629 67.5257 86.3954 66.9387 85.5801 65.8299C84.7648 64.7538 84.6018 63.1884 85.1888 61.9492Z" fill="#455A64"/>
<path d="M52.0885 53.4044C52.0885 53.4044 52.0558 53.437 51.9906 53.4696C51.9254 53.5022 51.8602 53.5348 51.7297 53.6C51.5015 53.6979 51.1753 53.8283 50.7514 53.9588C49.9035 54.187 48.6969 54.3501 47.3599 54.1218H47.3273V54.0892V54.0566C47.2947 53.3718 47.4903 52.7195 47.7838 52.2304C48.0773 51.7086 48.4687 51.3173 48.8274 51.089C49.1861 50.8281 49.5122 50.6977 49.7731 50.6325C49.9035 50.5998 50.0014 50.5672 50.034 50.5672C50.0992 50.5672 50.1318 50.5346 50.1318 50.5672C50.1318 50.5998 49.5774 50.6651 48.86 51.1868C48.5013 51.4477 48.1425 51.8391 47.8817 52.3282C47.5882 52.8174 47.4251 53.437 47.4577 54.1218V54.1544L47.4251 54.0892C48.7295 54.3175 49.9361 54.187 50.784 53.9588C51.208 53.8609 51.5341 53.7305 51.7623 53.6653C51.958 53.437 52.0885 53.4044 52.0885 53.4044Z" fill="#263238"/>
<path d="M50.3929 40.9166C49.1537 43.4602 46.5774 43.6233 44.3599 43.1667C44.5229 41.8949 45.5665 40.7535 46.7731 40.297C47.9797 39.8078 49.4471 40.0687 50.3929 40.9166Z" fill="#455A64"/>
<path d="M49.7081 40.4276C49.7081 40.4276 49.545 40.3624 49.2515 40.2646C48.958 40.1668 48.5015 40.0363 47.9145 40.0363C47.621 40.0363 47.3275 40.1015 47.0014 40.1994C46.6753 40.2972 46.3818 40.4603 46.0557 40.6885C45.7622 40.9168 45.4687 41.2103 45.2078 41.5038C44.9469 41.8299 44.7186 42.1886 44.5882 42.5799C44.523 42.7756 44.4577 42.9713 44.4251 43.1343L44.3925 43.0691C45.1752 43.2648 45.9252 43.3626 46.61 43.33C47.2949 43.2974 47.9145 43.1669 48.371 42.9387C48.8276 42.743 49.1863 42.4821 49.382 42.2865C49.5776 42.0908 49.6755 41.9603 49.7081 41.9603C49.7081 41.9603 49.6755 41.993 49.6428 42.0582C49.6102 42.1234 49.5124 42.2212 49.4146 42.3191C49.2189 42.5147 48.8928 42.8082 48.4036 43.0039C47.9471 43.2322 47.3275 43.3952 46.61 43.4278C45.9252 43.4604 45.1426 43.3626 44.3599 43.1669H44.2947L44.3273 43.1017C44.3925 42.9061 44.4251 42.7104 44.4903 42.5473C44.6208 42.1234 44.8817 41.7321 45.1426 41.4386C45.4034 41.1125 45.6969 40.819 45.9904 40.5907C46.3165 40.3624 46.6427 40.1994 46.9688 40.1015C47.2949 40.0037 47.621 39.9385 47.9145 39.9385C48.5015 39.9385 48.958 40.1015 49.2515 40.232C49.4146 40.2972 49.5124 40.3298 49.6102 40.3624C49.6428 40.395 49.7081 40.4276 49.7081 40.4276Z" fill="#263238"/>
<path d="M50.8488 38.6981C48.0443 39.0894 46.479 37.0349 45.6311 34.9152C46.7725 34.3282 48.3052 34.5565 49.3487 35.3065C50.3923 36.0566 51.0119 37.4262 50.8488 38.6981Z" fill="#455A64"/>
<path d="M50.8493 37.8501C50.8493 37.8501 50.8166 37.687 50.7188 37.3609C50.621 37.0674 50.4905 36.6109 50.197 36.1217C50.034 35.8935 49.8057 35.6652 49.5448 35.4695C49.2839 35.2739 48.9578 35.1108 48.5991 34.9804C48.2404 34.8499 47.8491 34.7847 47.4577 34.7521C47.0664 34.7195 46.6425 34.7195 46.2185 34.8499C46.0229 34.9151 45.8272 34.9477 45.6641 35.013L45.6967 34.9477C45.9902 35.6978 46.3164 36.3826 46.7077 36.937C47.099 37.4914 47.5556 37.9153 48.0121 38.1762C48.4361 38.4371 48.86 38.5675 49.1209 38.6328C49.4144 38.698 49.5448 38.698 49.5448 38.7306C49.5448 38.7306 49.5122 38.7306 49.4144 38.7306C49.3492 38.7306 49.2187 38.7306 49.0883 38.698C48.7948 38.6328 48.4034 38.5349 47.9469 38.2414C47.4903 37.9805 47.0012 37.5566 46.6098 37.0022C46.1859 36.4478 45.8598 35.7304 45.5663 34.9804L45.5337 34.9151L45.5989 34.8825C45.7946 34.8173 45.9576 34.7521 46.1533 34.7195C46.5772 34.589 47.0338 34.589 47.4577 34.6216C47.8817 34.6542 48.273 34.7195 48.6317 34.8825C48.9904 35.013 49.3165 35.2086 49.5774 35.4043C49.8383 35.6 50.0666 35.8282 50.2296 36.0891C50.5558 36.5783 50.6536 37.0348 50.7514 37.3609C50.784 37.524 50.8166 37.6544 50.8166 37.7197C50.8493 37.7849 50.8493 37.8501 50.8493 37.8501Z" fill="#263238"/>
<path d="M75.8293 35.4379C77.8186 33.416 80.297 34.0682 82.2537 35.177C81.6993 36.351 80.3622 37.101 79.0904 37.1662C77.786 37.2315 76.4816 36.5466 75.8293 35.4379Z" fill="#455A64"/>
<path d="M76.3506 36.1206C76.3506 36.1206 76.481 36.2184 76.7419 36.414C77.0028 36.6097 77.3941 36.8706 77.9159 37.0663C78.1768 37.1641 78.5029 37.1967 78.829 37.1641C79.1551 37.1641 79.5138 37.0989 79.8726 37.001C80.2313 36.9032 80.59 36.7075 80.9161 36.4793C81.2748 36.251 81.6009 35.9901 81.8618 35.6314C81.9923 35.4683 82.0901 35.3053 82.1879 35.1422L82.2205 35.2401C81.5357 34.8161 80.8509 34.49 80.1987 34.2943C79.5464 34.0987 78.9268 34.0661 78.4051 34.0987C77.8833 34.1639 77.492 34.2943 77.2311 34.4248C76.9702 34.5552 76.8397 34.6531 76.8397 34.6205C76.8397 34.6205 76.8724 34.5878 76.9376 34.5552C77.0028 34.5226 77.1006 34.4574 77.2311 34.3922C77.492 34.2617 77.8833 34.0987 78.4051 34.0335C78.9268 33.9682 79.5464 34.0008 80.2313 34.1965C80.9161 34.3922 81.6009 34.7183 82.2858 35.1422L82.351 35.1748L82.3184 35.2401C82.2205 35.4031 82.0901 35.5662 81.9923 35.7292C81.7314 36.0879 81.3727 36.3814 81.0139 36.5771C80.6552 36.8054 80.2965 37.001 79.9378 37.0989C79.5791 37.2293 79.2203 37.2619 78.8616 37.2619C78.5355 37.2619 78.2094 37.2293 77.9159 37.1315C77.3615 36.9358 76.9702 36.6423 76.7419 36.4467C76.6115 36.3488 76.5136 36.251 76.4484 36.2184C76.3832 36.1532 76.3506 36.1206 76.3506 36.1206Z" fill="#263238"/>
<path d="M76.5143 33.8708C76.0904 32.175 77.2318 31.0989 78.4384 30.4141C78.8949 31.0663 78.8297 32.012 78.471 32.7294C78.1123 33.4143 77.3296 33.8708 76.5143 33.8708Z" fill="#455A64"/>
<path d="M77.0358 33.8058C77.0358 33.8058 77.1336 33.7732 77.3293 33.6753C77.4924 33.6101 77.7859 33.4797 78.0467 33.2514C78.3076 33.0231 78.5359 32.6644 78.6337 32.2078C78.699 31.9796 78.699 31.7513 78.699 31.4904C78.699 31.2295 78.6664 31.0012 78.5685 30.7403C78.5359 30.6425 78.4707 30.5121 78.4381 30.4142L78.5033 30.4468C78.0794 30.6751 77.6554 30.936 77.3619 31.1969C77.0358 31.4904 76.8401 31.7839 76.6771 32.0774C76.4162 32.6644 76.4488 33.0557 76.4488 33.0557C76.4488 33.0557 76.4162 32.9579 76.4488 32.7948C76.4488 32.6318 76.514 32.3709 76.6445 32.0448C76.7749 31.7513 77.0032 31.4252 77.3293 31.1317C77.6554 30.8382 78.0468 30.5773 78.5033 30.349L78.5685 30.3164L78.6011 30.3816C78.6337 30.4795 78.699 30.6099 78.7642 30.7077C78.862 30.9686 78.8946 31.2295 78.8946 31.4904C78.8946 31.7513 78.8946 32.0122 78.8294 32.2404C78.7642 32.4687 78.6664 32.697 78.5685 32.86C78.4707 33.0557 78.3402 33.1862 78.1772 33.3166C77.8837 33.5449 77.6228 33.6427 77.4271 33.7079C77.1663 33.7731 77.0358 33.8058 77.0358 33.8058Z" fill="#263238"/>
<path d="M73.6113 30.0905C73.1873 28.3948 74.3287 27.3186 75.5353 26.6338C75.9918 27.286 75.9266 28.2317 75.5679 28.9492C75.2092 29.634 74.3939 30.0905 73.6113 30.0905Z" fill="#455A64"/>
<path d="M74.1335 30.0255C74.1335 30.0255 74.2313 29.9929 74.427 29.895C74.59 29.8298 74.8835 29.6994 75.1444 29.4711C75.4053 29.2428 75.6336 28.8841 75.7314 28.4276C75.7966 28.1993 75.7966 27.971 75.7966 27.7101C75.7966 27.4492 75.764 27.221 75.6662 26.9601C75.6336 26.8622 75.5683 26.7318 75.5357 26.634L75.601 26.6666C75.177 26.8949 74.7531 27.1557 74.4596 27.4166C74.1335 27.7101 73.9378 28.0036 73.7748 28.2971C73.5139 28.8841 73.5465 29.2754 73.5465 29.2754C73.5465 29.2754 73.5139 29.1776 73.5465 29.0146C73.5465 28.8515 73.6117 28.5906 73.7421 28.2645C73.8726 27.971 74.1009 27.6449 74.427 27.3514C74.7531 27.0579 75.1444 26.797 75.601 26.5687L75.6662 26.5361L75.6988 26.6014C75.7314 26.6992 75.7966 26.8296 75.8618 26.9275C75.9597 27.1883 75.9923 27.4492 75.9923 27.7101C75.9923 27.971 75.9923 28.2319 75.9271 28.4602C75.8618 28.6884 75.764 28.9167 75.6662 29.0798C75.5683 29.2754 75.4379 29.4059 75.2748 29.5363C74.9813 29.7646 74.7205 29.8624 74.5248 29.9277C74.2639 29.9929 74.1335 30.0255 74.1335 30.0255Z" fill="#263238"/>
<path d="M72.0464 28.9481C69.7637 28.1002 69.4376 25.9152 69.6332 23.9912C70.742 24.0238 71.7856 24.8065 72.3073 25.7848C72.7965 26.7957 72.6987 28.035 72.0464 28.9481Z" fill="#455A64"/>
<path d="M72.4051 28.296C72.4051 28.296 72.4377 28.133 72.503 27.8721C72.5682 27.6112 72.6334 27.2199 72.6008 26.7307C72.5682 26.5024 72.503 26.2415 72.3725 25.9806C72.2421 25.7198 72.079 25.4589 71.8834 25.2306C71.6877 25.0023 71.3942 24.774 71.1007 24.5784C70.8072 24.3827 70.4811 24.2197 70.1224 24.1218C69.9593 24.0892 69.7963 24.0566 69.6332 24.024L69.6984 23.9588C69.6006 24.6436 69.6006 25.2958 69.6658 25.8828C69.7311 26.4698 69.9267 26.959 70.1224 27.3503C70.3507 27.7416 70.5789 28.0025 70.7746 28.1656C70.9703 28.3286 71.0681 28.3938 71.0681 28.3938C71.0681 28.3938 71.0355 28.3938 70.9703 28.3612C70.905 28.3286 70.8398 28.2634 70.742 28.1982C70.5463 28.0351 70.2854 27.7742 70.0572 27.4155C69.8289 27.0242 69.6332 26.535 69.5354 25.9154C69.4376 25.3284 69.4702 24.6436 69.568 23.9588V23.8936H69.6332C69.7963 23.9262 69.9593 23.9588 70.1224 23.9914C70.4811 24.0892 70.8398 24.2523 71.1333 24.4479C71.4268 24.6436 71.6877 24.8719 71.916 25.1328C72.1443 25.3936 72.3073 25.6545 72.4377 25.9154C72.5682 26.1763 72.6334 26.4372 72.666 26.6981C72.6986 27.1872 72.6008 27.6112 72.5356 27.8721C72.503 28.0025 72.4704 28.1003 72.4377 28.1656C72.4377 28.2634 72.4051 28.296 72.4051 28.296Z" fill="#263238"/>
<path d="M62.0023 38.2747C60.8609 38.0791 58.8717 39.5139 58.5129 40.8836C60.013 41.014 60.8935 41.1119 62.2632 40.4597C62.0023 41.2749 62.0675 42.2206 62.4588 43.0033C62.6871 43.4272 63.0458 43.8512 63.535 43.8512C63.8285 43.8512 64.122 43.6555 64.3177 43.4599C64.872 42.9707 65.1982 42.2532 65.296 41.5358C66.0786 42.4815 67.2526 43.0685 68.4918 43.1337C68.1657 42.1228 67.5135 41.2423 66.6656 40.5901C68.3614 40.7205 69.4049 40.7858 70.4485 40.0683C69.8941 38.8617 69.2419 38.5356 67.8722 37.916" fill="#455A64"/>
<path d="M67.8722 37.916C67.8722 37.916 67.9048 37.916 67.9374 37.9486C67.97 37.9812 68.0353 37.9812 68.1005 38.0138C68.2309 38.0791 68.4592 38.1443 68.7201 38.2747C68.981 38.4052 69.3071 38.5682 69.6332 38.8617C69.9593 39.1552 70.2528 39.5466 70.4811 40.0683V40.1009L70.4485 40.1335C69.9919 40.4597 69.4049 40.6879 68.7527 40.7205C68.1005 40.7858 67.383 40.7205 66.633 40.6553L66.6656 40.5575C67.4483 41.1445 68.1331 42.025 68.4918 43.1011L68.5244 43.1664H68.4266C67.2526 43.1011 66.0134 42.5467 65.1981 41.5358L65.296 41.5032C65.2633 41.7315 65.2307 41.9598 65.1329 42.2206C64.9372 42.775 64.5785 43.2642 64.122 43.6229C63.8937 43.786 63.6002 43.9164 63.3067 43.8838C63.0132 43.8512 62.7849 43.6555 62.5893 43.4272C62.2305 43.0033 62.0675 42.4489 62.0023 41.9271C61.937 41.4054 62.0023 40.8836 62.1327 40.427L62.1979 40.4923C61.5457 40.8184 60.8935 41.014 60.2413 41.014C59.5891 41.0467 59.0021 40.9488 58.4477 40.9162H58.3825V40.8836C58.4803 40.5249 58.676 40.2314 58.839 39.9705C59.0347 39.7096 59.2303 39.4813 59.4586 39.2857C59.8826 38.8943 60.3065 38.6334 60.6978 38.503C61.0565 38.34 61.3827 38.2747 61.5783 38.2747C61.6762 38.2747 61.774 38.2747 61.8066 38.2747C61.8718 38.2747 61.8718 38.2747 61.8718 38.2747C61.8718 38.2747 61.8392 38.2747 61.774 38.2747C61.7088 38.2747 61.6435 38.2747 61.5457 38.2747C61.35 38.2747 61.0239 38.3726 60.6652 38.5356C60.3065 38.6987 59.8826 38.9596 59.4586 39.3509C59.263 39.5466 59.0347 39.7748 58.839 40.0031C58.6434 40.264 58.4803 40.5575 58.3825 40.8836L58.3499 40.8184C58.9042 40.851 59.4912 40.9488 60.1434 40.9162C60.7631 40.8836 61.4479 40.7205 62.0675 40.3944L62.1653 40.3292L62.1327 40.4597C62.0023 40.9162 61.937 41.4054 62.0023 41.9271C62.0675 42.4163 62.2305 42.9381 62.5566 43.362C62.7197 43.5577 62.948 43.7207 63.2089 43.786C63.4697 43.8186 63.7306 43.7207 63.9263 43.5577C64.3502 43.2316 64.6763 42.7424 64.872 42.188C64.9372 41.9598 65.0025 41.7315 65.0351 41.5032V41.3728L65.1329 41.4706C65.9482 42.4489 67.1548 43.0033 68.2961 43.0685L68.2309 43.1337C67.8722 42.0902 67.1874 41.2097 66.4373 40.6227L66.3069 40.5249H66.4699C67.22 40.5901 67.9374 40.6553 68.557 40.5901C69.2093 40.5575 69.7962 40.3292 70.2202 40.0357V40.0683C69.9919 39.5792 69.731 39.1552 69.4049 38.8943C69.0788 38.6008 68.7527 38.4378 68.4918 38.3073C68.2309 38.1769 68.0026 38.0791 67.8722 38.0138C67.807 37.9812 67.7418 37.9486 67.7092 37.9486C67.8722 37.9486 67.8722 37.916 67.8722 37.916Z" fill="#263238"/>
<path d="M67.8722 37.916C67.8722 37.916 67.9048 37.916 67.9374 37.9486C67.97 37.9812 68.0353 37.9812 68.1005 38.0138C68.2309 38.0791 68.4592 38.1443 68.7201 38.2747C68.981 38.4052 69.3071 38.5682 69.6332 38.8617C69.9593 39.1552 70.2528 39.5466 70.4811 40.0683V40.1009L70.4485 40.1335C69.9919 40.4597 69.4049 40.6879 68.7527 40.7205C68.1005 40.7858 67.383 40.7205 66.633 40.6553L66.6656 40.5575C67.4483 41.1445 68.1331 42.025 68.4918 43.1011L68.5244 43.1664H68.4266C67.2526 43.1011 66.0134 42.5467 65.1981 41.5358L65.296 41.5032C65.2633 41.7315 65.2307 41.9598 65.1329 42.2206C64.9372 42.775 64.5785 43.2642 64.122 43.6229C63.8937 43.786 63.6002 43.9164 63.3067 43.8838C63.0132 43.8512 62.7849 43.6555 62.5893 43.4272C62.2305 43.0033 62.0675 42.4489 62.0023 41.9271C61.937 41.4054 62.0023 40.8836 62.1327 40.427L62.1979 40.4923C61.5457 40.8184 60.8935 41.014 60.2413 41.014C59.5891 41.0467 59.0021 40.9488 58.4477 40.9162H58.3825V40.8836C58.4803 40.5249 58.676 40.2314 58.839 39.9705C59.0347 39.7096 59.2303 39.4813 59.4586 39.2857C59.8826 38.8943 60.3065 38.6334 60.6978 38.503C61.0565 38.34 61.3827 38.2747 61.5783 38.2747C61.6762 38.2747 61.774 38.2747 61.8066 38.2747C61.8718 38.2747 61.8718 38.2747 61.8718 38.2747C61.8718 38.2747 61.8392 38.2747 61.774 38.2747C61.7088 38.2747 61.6435 38.2747 61.5457 38.2747C61.35 38.2747 61.0239 38.3726 60.6652 38.5356C60.3065 38.6987 59.8826 38.9596 59.4586 39.3509C59.263 39.5466 59.0347 39.7748 58.839 40.0031C58.6434 40.264 58.4803 40.5575 58.3825 40.8836L58.3499 40.8184C58.9042 40.851 59.4912 40.9488 60.1434 40.9162C60.7631 40.8836 61.4479 40.7205 62.0675 40.3944L62.1653 40.3292L62.1327 40.4597C62.0023 40.9162 61.937 41.4054 62.0023 41.9271C62.0675 42.4163 62.2305 42.9381 62.5566 43.362C62.7197 43.5577 62.948 43.7207 63.2089 43.786C63.4697 43.8186 63.7306 43.7207 63.9263 43.5577C64.3502 43.2316 64.6763 42.7424 64.872 42.188C64.9372 41.9598 65.0025 41.7315 65.0351 41.5032V41.3728L65.1329 41.4706C65.9482 42.4489 67.1548 43.0033 68.2961 43.0685L68.2309 43.1337C67.8722 42.0902 67.1874 41.2097 66.4373 40.6227L66.3069 40.5249H66.4699C67.22 40.5901 67.9374 40.6553 68.557 40.5901C69.2093 40.5575 69.7962 40.3292 70.2202 40.0357V40.0683C69.9919 39.5792 69.731 39.1552 69.4049 38.8943C69.0788 38.6008 68.7527 38.4378 68.4918 38.3073C68.2309 38.1769 68.0026 38.0791 67.8722 38.0138C67.807 37.9812 67.7418 37.9486 67.7092 37.9486C67.8722 37.9486 67.8722 37.916 67.8722 37.916Z" fill="#263238"/>
<path d="M40.3163 46.4935C39.1749 46.2978 37.1856 47.7327 36.8269 49.1023C38.327 49.2328 39.2075 49.3306 40.5771 48.6784C40.3163 49.4937 40.3815 50.4394 40.7728 51.222C41.0011 51.646 41.3598 52.0699 41.849 52.0699C42.1425 52.0699 42.436 51.8743 42.6316 51.6786C43.186 51.1894 43.5121 50.472 43.61 49.7546C44.3926 50.7003 45.5666 51.2873 46.8058 51.3525C46.4797 50.3416 45.8275 49.4611 44.9796 48.8089C46.6754 48.9393 47.7189 49.0045 48.7625 48.2871C48.2081 47.0805 47.5559 46.7544 46.1862 46.1348" fill="#455A64"/>
<path d="M46.1539 46.1348C46.1539 46.1348 46.1866 46.1348 46.2192 46.1674C46.2518 46.2 46.317 46.2 46.3822 46.2326C46.5127 46.2978 46.7409 46.363 47.0018 46.4935C47.2627 46.6239 47.5888 46.787 47.9149 47.0805C48.241 47.374 48.5345 47.7653 48.7628 48.2871V48.3197L48.7302 48.3523C48.2736 48.6784 47.6867 48.9067 47.0344 48.9393C46.3822 49.0045 45.6648 48.9393 44.9147 48.8741L44.9473 48.7762C45.73 49.3632 46.4148 50.2437 46.7736 51.3199L46.8062 51.3851H46.7083C45.5343 51.3199 44.2951 50.7655 43.4799 49.7546L43.5777 49.722C43.5451 49.9502 43.5125 50.1785 43.4146 50.4394C43.219 50.9938 42.8603 51.4829 42.4037 51.8417C42.1754 52.0047 41.8819 52.1352 41.5884 52.1025C41.2949 52.0699 41.0667 51.8743 40.871 51.646C40.5123 51.222 40.3492 50.6677 40.284 50.1459C40.2188 49.6241 40.284 49.1023 40.4144 48.6458L40.4797 48.711C39.8274 49.0371 39.1752 49.2328 38.523 49.2328C37.8708 49.2654 37.2838 49.1676 36.7294 49.135H36.6642V49.1023C36.762 48.7436 36.9577 48.4501 37.1208 48.1892C37.3164 47.9284 37.5121 47.7001 37.7404 47.5044C38.1643 47.1131 38.5882 46.8522 38.9796 46.7218C39.3383 46.5587 39.6644 46.4935 39.8601 46.4935C39.9579 46.4935 40.0557 46.4935 40.0883 46.4935C40.1536 46.4935 40.1536 46.4935 40.1536 46.4935C40.1536 46.4935 40.1209 46.4935 40.0557 46.4935C39.9905 46.4935 39.9253 46.4935 39.8274 46.4935C39.6318 46.4935 39.3057 46.5913 38.947 46.7544C38.5882 46.9174 38.1643 47.1783 37.7404 47.5696C37.5447 47.7653 37.3164 47.9936 37.1208 48.2219C36.9251 48.4827 36.762 48.7762 36.6642 49.1023L36.6316 49.0371C37.186 49.0697 37.773 49.1676 38.4252 49.135C39.0448 49.1023 39.7296 48.9393 40.3492 48.6132L40.4471 48.548L40.4144 48.6784C40.284 49.135 40.2188 49.6241 40.284 50.1459C40.3492 50.6351 40.5123 51.1568 40.8384 51.5808C41.0014 51.7764 41.2297 51.9395 41.4906 52.0047C41.7515 52.0373 42.0124 51.9395 42.208 51.7764C42.632 51.4503 42.9907 50.9612 43.1538 50.4068C43.219 50.1785 43.2842 49.9502 43.3168 49.722V49.5915L43.4146 49.6893C44.2299 50.6677 45.4365 51.2221 46.5779 51.2873L46.5127 51.3525C46.1539 50.3089 45.4691 49.4285 44.7191 48.8415L44.5886 48.7436H44.7517C45.5017 48.8089 46.2192 48.8741 46.8388 48.8089C47.491 48.7762 48.078 48.548 48.5019 48.2545V48.2871C48.2736 47.7979 48.0128 47.374 47.6867 47.1131C47.3605 46.8196 47.0344 46.6565 46.7736 46.5261C46.5127 46.3957 46.2844 46.2978 46.1539 46.2326C46.0887 46.2 46.0235 46.1674 45.9909 46.1674C46.1866 46.1674 46.1539 46.1348 46.1539 46.1348Z" fill="#263238"/>
<path d="M46.1542 46.1348C46.1542 46.1348 46.1868 46.1348 46.2194 46.1674C46.252 46.2 46.3172 46.2 46.3825 46.2326C46.5129 46.2978 46.7412 46.363 47.0021 46.4935C47.263 46.6239 47.5891 46.787 47.9152 47.0805C48.2413 47.374 48.5348 47.7653 48.7631 48.2871V48.3197L48.7304 48.3523C48.2739 48.6784 47.6869 48.9067 47.0347 48.9393C46.3825 49.0045 45.665 48.9393 44.915 48.8741L44.9476 48.7762C45.7302 49.3632 46.4151 50.2437 46.7738 51.3199L46.8064 51.3851H46.7086C45.5346 51.3199 44.2954 50.7655 43.4801 49.7546L43.5779 49.722C43.5453 49.9502 43.5127 50.1785 43.4149 50.4394C43.2192 50.9938 42.8605 51.4829 42.4039 51.8417C42.1757 52.0047 41.8822 52.1352 41.5887 52.1025C41.2952 52.0699 41.0669 51.8743 40.8712 51.646C40.5125 51.222 40.3495 50.6677 40.2842 50.1459C40.219 49.6241 40.2842 49.1023 40.4147 48.6458L40.4799 48.711C39.8277 49.0371 39.1755 49.2328 38.5233 49.2328C37.871 49.2654 37.2841 49.1676 36.7297 49.135H36.6644V49.1023C36.7623 48.7436 36.9579 48.4501 37.121 48.1892C37.3167 47.9284 37.5123 47.7001 37.7406 47.5044C38.1645 47.1131 38.5885 46.8522 38.9798 46.7218C39.3385 46.5587 39.6646 46.4935 39.8603 46.4935C39.9581 46.4935 40.056 46.4935 40.0886 46.4935C40.1538 46.4935 40.1538 46.4935 40.1538 46.4935C40.1538 46.4935 40.1212 46.4935 40.056 46.4935C39.9907 46.4935 39.9255 46.4935 39.8277 46.4935C39.632 46.4935 39.3059 46.5913 38.9472 46.7544C38.5885 46.9174 38.1645 47.1783 37.7406 47.5696C37.5449 47.7653 37.3167 47.9936 37.121 48.2219C36.9253 48.4827 36.7623 48.7762 36.6644 49.1023L36.6318 49.0371C37.1862 49.0697 37.7732 49.1676 38.4254 49.135C39.045 49.1023 39.7299 48.9393 40.3495 48.6132L40.4473 48.548L40.4147 48.6784C40.2842 49.135 40.219 49.6241 40.2842 50.1459C40.3495 50.6351 40.5125 51.1568 40.8386 51.5808C41.0017 51.7764 41.23 51.9395 41.4908 52.0047C41.7517 52.0373 42.0126 51.9395 42.2083 51.7764C42.6322 51.4503 42.9909 50.9612 43.154 50.4068C43.2192 50.1785 43.2844 49.9502 43.317 49.722V49.5915L43.4149 49.6893C44.2302 50.6677 45.4368 51.2221 46.5781 51.2873L46.5129 51.3525C46.1542 50.3089 45.4694 49.4285 44.7193 48.8415L44.5889 48.7436H44.7519C45.502 48.8089 46.2194 48.8741 46.839 48.8089C47.4912 48.7762 48.0782 48.548 48.5022 48.2545V48.2871C48.2739 47.7979 48.013 47.374 47.6869 47.1131C47.3608 46.8196 47.0347 46.6565 46.7738 46.5261C46.5129 46.3957 46.2846 46.2978 46.1542 46.2326C46.089 46.2 46.0237 46.1674 45.9911 46.1674C46.1868 46.1674 46.1542 46.1348 46.1542 46.1348Z" fill="#263238"/>
<path d="M88.5149 37.721C87.3409 37.7862 85.7103 39.6124 85.6777 41.0473C87.1778 40.8516 88.0583 40.7538 89.2323 39.8081C89.1671 40.6886 89.428 41.569 89.9824 42.2539C90.2759 42.6126 90.765 42.9713 91.2216 42.8409C91.5151 42.7756 91.7433 42.5474 91.9064 42.2865C92.3303 41.6669 92.526 40.9168 92.4282 40.1994C93.4065 40.9494 94.6783 41.2756 95.8849 41.0799C95.3305 40.1668 94.5153 39.4493 93.5695 38.9928C95.2653 38.7645 96.3089 38.5689 97.1567 37.6558C96.3741 36.6122 95.6566 36.4165 94.1565 36.123" fill="#455A64"/>
<path d="M94.1567 36.123C94.1567 36.123 94.1893 36.123 94.2219 36.123C94.2546 36.123 94.3198 36.123 94.385 36.1557C94.548 36.1883 94.7763 36.2209 95.0698 36.2861C95.3633 36.3513 95.722 36.4492 96.1134 36.6448C96.5047 36.8405 96.8634 37.1992 97.1895 37.6231L97.2221 37.6558L97.1895 37.6884C96.8308 38.0797 96.2764 38.4384 95.6568 38.6341C95.0372 38.8297 94.3198 38.9276 93.5697 39.0254V38.9276C94.4502 39.3515 95.3307 40.0363 95.9177 41.0147L95.9503 41.0799H95.8525C94.7111 41.2756 93.3741 41.0147 92.3305 40.1994L92.4283 40.1342C92.461 40.3624 92.461 40.6233 92.4283 40.8516C92.3631 41.4386 92.1348 41.993 91.7761 42.4495C91.5805 42.6778 91.3196 42.8735 91.0261 42.8735C90.7326 42.9061 90.4391 42.743 90.2434 42.58C89.8195 42.2213 89.526 41.7321 89.3303 41.2429C89.1347 40.7538 89.102 40.232 89.1347 39.7428L89.2325 39.7755C88.6781 40.232 88.0585 40.5581 87.4389 40.7212C86.8193 40.8842 86.1997 40.9494 85.6453 41.0147H85.5801V40.9494C85.5801 40.5907 85.7105 40.232 85.841 39.9385C85.9714 39.645 86.1345 39.3841 86.2975 39.1558C86.6236 38.6993 86.9823 38.3406 87.3085 38.1123C87.6346 37.884 87.9281 37.7536 88.1237 37.6884C88.2216 37.6558 88.3194 37.6558 88.352 37.6558C88.4172 37.6558 88.4498 37.6558 88.4498 37.6558C88.4498 37.6558 88.4172 37.6558 88.3846 37.6884C88.3194 37.6884 88.2542 37.721 88.1563 37.7536C87.9607 37.8188 87.6672 37.9492 87.3411 38.1775C87.015 38.4058 86.6562 38.7645 86.3301 39.2211C86.1671 39.4493 86.004 39.7102 85.8736 40.0037C85.7431 40.2972 85.6453 40.6233 85.6453 40.9821L85.6127 40.9494C86.1671 40.8842 86.7541 40.819 87.3737 40.6559C87.9933 40.4929 88.5803 40.1668 89.1347 39.7102L89.2325 39.645V39.7755C89.1999 40.2646 89.2651 40.7538 89.4282 41.2429C89.5912 41.6995 89.8847 42.1887 90.3086 42.5148C90.5043 42.6778 90.7652 42.8083 91.0261 42.7756C91.287 42.7756 91.5152 42.6126 91.6783 42.3843C92.037 41.9604 92.2327 41.406 92.3305 40.8516C92.3631 40.6233 92.3631 40.3624 92.3305 40.1668V40.0363L92.4283 40.1342C93.4393 40.9168 94.7437 41.1777 95.8525 40.9821L95.8199 41.0799C95.2329 40.1342 94.385 39.4167 93.5371 39.0254L93.3741 38.9602L93.5371 38.9276C94.2872 38.8297 94.972 38.7319 95.5916 38.5362C96.2112 38.3406 96.733 38.0145 97.0917 37.6231V37.6558C96.7656 37.2318 96.4069 36.8731 96.0481 36.6774C95.6894 36.4818 95.3307 36.3839 95.0372 36.3187C94.7437 36.2535 94.5154 36.1883 94.385 36.1557C94.3198 36.1557 94.2546 36.123 94.2219 36.123C94.1567 36.123 94.1567 36.123 94.1567 36.123Z" fill="#263238"/>
<path d="M94.1567 36.123C94.1567 36.123 94.1893 36.123 94.2219 36.123C94.2546 36.123 94.3198 36.123 94.385 36.1557C94.548 36.1883 94.7763 36.2209 95.0698 36.2861C95.3633 36.3513 95.722 36.4492 96.1134 36.6448C96.5047 36.8405 96.8634 37.1992 97.1895 37.6231L97.2221 37.6558L97.1895 37.6884C96.8308 38.0797 96.2764 38.4384 95.6568 38.6341C95.0372 38.8297 94.3198 38.9276 93.5697 39.0254V38.9276C94.4502 39.3515 95.3307 40.0363 95.9177 41.0147L95.9503 41.0799H95.8525C94.7111 41.2756 93.3741 41.0147 92.3305 40.1994L92.4283 40.1342C92.461 40.3624 92.461 40.6233 92.4283 40.8516C92.3631 41.4386 92.1348 41.993 91.7761 42.4495C91.5805 42.6778 91.3196 42.8735 91.0261 42.8735C90.7326 42.9061 90.4391 42.743 90.2434 42.58C89.8195 42.2213 89.526 41.7321 89.3303 41.2429C89.1347 40.7538 89.102 40.232 89.1347 39.7428L89.2325 39.7755C88.6781 40.232 88.0585 40.5581 87.4389 40.7212C86.8193 40.8842 86.1997 40.9494 85.6453 41.0147H85.5801V40.9494C85.5801 40.5907 85.7105 40.232 85.841 39.9385C85.9714 39.645 86.1345 39.3841 86.2975 39.1558C86.6236 38.6993 86.9823 38.3406 87.3085 38.1123C87.6346 37.884 87.9281 37.7536 88.1237 37.6884C88.2216 37.6558 88.3194 37.6558 88.352 37.6558C88.4172 37.6558 88.4498 37.6558 88.4498 37.6558C88.4498 37.6558 88.4172 37.6558 88.3846 37.6884C88.3194 37.6884 88.2542 37.721 88.1563 37.7536C87.9607 37.8188 87.6672 37.9492 87.3411 38.1775C87.015 38.4058 86.6562 38.7645 86.3301 39.2211C86.1671 39.4493 86.004 39.7102 85.8736 40.0037C85.7431 40.2972 85.6453 40.6233 85.6453 40.9821L85.6127 40.9494C86.1671 40.8842 86.7541 40.819 87.3737 40.6559C87.9933 40.4929 88.5803 40.1668 89.1347 39.7102L89.2325 39.645V39.7755C89.1999 40.2646 89.2651 40.7538 89.4282 41.2429C89.5912 41.6995 89.8847 42.1887 90.3086 42.5148C90.5043 42.6778 90.7652 42.8083 91.0261 42.7756C91.287 42.7756 91.5152 42.6126 91.6783 42.3843C92.037 41.9604 92.2327 41.406 92.3305 40.8516C92.3631 40.6233 92.3631 40.3624 92.3305 40.1668V40.0363L92.4283 40.1342C93.4393 40.9168 94.7437 41.1777 95.8525 40.9821L95.8199 41.0799C95.2329 40.1342 94.385 39.4167 93.5371 39.0254L93.3741 38.9602L93.5371 38.9276C94.2872 38.8297 94.972 38.7319 95.5916 38.5362C96.2112 38.3406 96.733 38.0145 97.0917 37.6231V37.6558C96.7656 37.2318 96.4069 36.8731 96.0481 36.6774C95.6894 36.4818 95.3307 36.3839 95.0372 36.3187C94.7437 36.2535 94.5154 36.1883 94.385 36.1557C94.3198 36.1557 94.2546 36.123 94.2219 36.123C94.1567 36.123 94.1567 36.123 94.1567 36.123Z" fill="#263238"/>
<path d="M53.165 24.5452C51.991 24.6104 50.3605 26.4366 50.3279 27.8715C51.828 27.6758 52.7085 27.578 53.8825 26.6323C53.8172 27.5128 54.0781 28.3933 54.6325 29.0781C54.926 29.4368 55.4152 29.7955 55.8717 29.6651C56.1652 29.5999 56.3935 29.3716 56.5565 29.1107C56.9805 28.4911 57.1761 27.7411 57.0783 27.0236C58.0566 27.7737 59.3285 28.0998 60.5351 27.9041C59.9807 26.991 59.1654 26.2736 58.2197 25.817C59.9155 25.5887 60.959 25.3931 61.8069 24.48C61.0242 23.4364 60.3068 23.2408 58.8067 22.9473" fill="#455A64"/>
<path d="M58.8071 22.917C58.8071 22.917 58.8397 22.917 58.8723 22.917C58.9049 22.917 58.9702 22.917 59.0354 22.9496C59.1984 22.9822 59.4267 23.0148 59.7202 23.08C60.0137 23.1453 60.3724 23.2431 60.7638 23.4388C61.1551 23.6344 61.5138 23.9931 61.8399 24.4171L61.8725 24.4497L61.8399 24.4823C61.4812 24.8736 60.9268 25.2324 60.3072 25.428C59.6876 25.6237 58.9702 25.7215 58.2201 25.8194V25.7215C59.1006 26.1455 59.9811 26.8303 60.5681 27.8086L60.6007 27.8738H60.5029C59.3615 28.0695 58.0245 27.8086 56.9809 26.9933L57.0787 26.9281C57.1113 27.1564 57.1113 27.4173 57.0787 27.6456C57.0135 28.2326 56.7852 28.7869 56.4265 29.2435C56.2309 29.4718 55.97 29.6674 55.6765 29.6674C55.383 29.7 55.0895 29.537 54.8938 29.3739C54.4699 29.0152 54.1764 28.526 53.9807 28.0369C53.785 27.5477 53.7524 27.0259 53.785 26.5368L53.8829 26.5694C53.3285 27.026 52.7089 27.3521 52.0893 27.5151C51.4697 27.6782 50.8501 27.7434 50.2957 27.8086H50.2305V27.7434C50.2305 27.3847 50.3609 27.026 50.4914 26.7325C50.6218 26.439 50.7849 26.1781 50.9479 25.9498C51.274 25.4932 51.6327 25.1345 51.9588 24.9062C52.285 24.678 52.5784 24.5475 52.7741 24.4823C52.8719 24.4497 52.9698 24.4497 53.0024 24.4497C53.0676 24.4497 53.1002 24.4497 53.1002 24.4497C53.1002 24.4497 53.0676 24.4497 53.035 24.4823C52.9698 24.4823 52.9046 24.5149 52.8067 24.5475C52.6111 24.6128 52.3176 24.7432 51.9915 24.9715C51.6653 25.1997 51.3066 25.5585 50.9805 26.015C50.8175 26.2433 50.6544 26.5042 50.524 26.7977C50.3935 27.0912 50.2957 27.4173 50.2957 27.776L50.2631 27.7434C50.8175 27.6782 51.4045 27.6129 52.0241 27.4499C52.6437 27.2868 53.2307 26.9607 53.785 26.5042L53.8829 26.439V26.5694C53.8503 27.0586 53.9155 27.5477 54.0785 28.0369C54.2416 28.4934 54.5351 28.9826 54.959 29.3087C55.1547 29.4718 55.4156 29.6022 55.6765 29.5696C55.9374 29.5696 56.1656 29.4065 56.3287 29.1783C56.6874 28.7543 56.8831 28.1999 56.9809 27.6456C57.0135 27.4173 57.0135 27.1564 56.9809 26.9607V26.8303L57.0787 26.9281C58.0897 27.7108 59.3941 27.9717 60.5029 27.776L60.4703 27.8738C59.8833 26.9281 59.0354 26.2107 58.1875 25.8194L58.0245 25.7541L58.1875 25.7215C58.9376 25.6237 59.6224 25.5259 60.242 25.3302C60.8616 25.1345 61.3834 24.8084 61.7421 24.4171V24.4497C61.416 24.0258 61.0573 23.667 60.6985 23.4714C60.3398 23.2757 59.9811 23.1779 59.6876 23.1127C59.3941 23.0474 59.1658 22.9822 59.0354 22.9496C58.9702 22.9496 58.9049 22.917 58.8723 22.917C58.8071 22.9496 58.8071 22.9496 58.8071 22.917Z" fill="#263238"/>
<path d="M58.8069 22.916C58.8069 22.916 58.8395 22.916 58.8721 22.916C58.9047 22.916 58.9699 22.916 59.0351 22.9486C59.1982 22.9812 59.4265 23.0138 59.72 23.0791C60.0135 23.1443 60.3722 23.2421 60.7635 23.4378C61.1548 23.6335 61.5136 23.9922 61.8397 24.4161L61.8723 24.4487L61.8397 24.4813C61.481 24.8727 60.9266 25.2314 60.307 25.427C59.6874 25.6227 58.9699 25.7205 58.2199 25.8184V25.7205C59.1004 26.1445 59.9809 26.8293 60.5679 27.8076L60.6005 27.8729H60.5026C59.3613 28.0685 58.0242 27.8076 56.9807 26.9924L57.0785 26.9271C57.1111 27.1554 57.1111 27.4163 57.0785 27.6446C57.0133 28.2316 56.785 28.786 56.4263 29.2425C56.2306 29.4708 55.9697 29.6665 55.6762 29.6665C55.3827 29.6991 55.0892 29.536 54.8936 29.373C54.4696 29.0142 54.1761 28.5251 53.9805 28.0359C53.7848 27.5467 53.7522 27.025 53.7848 26.5358L53.8826 26.5684C53.3283 27.025 52.7086 27.3511 52.089 27.5141C51.4694 27.6772 50.8498 27.7424 50.2954 27.8076H50.2302V27.7424C50.2302 27.3837 50.3607 27.025 50.4911 26.7315C50.6216 26.438 50.7846 26.1771 50.9477 25.9488C51.2738 25.4923 51.6325 25.1335 51.9586 24.9053C52.2847 24.677 52.5782 24.5466 52.7739 24.4813C52.8717 24.4487 52.9695 24.4487 53.0021 24.4487C53.0674 24.4487 53.1 24.4487 53.1 24.4487C53.1 24.4487 53.0674 24.4487 53.0348 24.4813C52.9695 24.4813 52.9043 24.5139 52.8065 24.5466C52.6108 24.6118 52.3173 24.7422 51.9912 24.9705C51.6651 25.1988 51.3064 25.5575 50.9803 26.014C50.8172 26.2423 50.6542 26.5032 50.5237 26.7967C50.3933 27.0902 50.2954 27.4163 50.2954 27.775L50.2628 27.7424C50.8172 27.6772 51.4042 27.612 52.0238 27.4489C52.6434 27.2859 53.2304 26.9598 53.7848 26.5032L53.8826 26.438V26.5684C53.85 27.0576 53.9152 27.5467 54.0783 28.0359C54.2414 28.4925 54.5349 28.9816 54.9588 29.3077C55.1545 29.4708 55.4153 29.6012 55.6762 29.5686C55.9371 29.5686 56.1654 29.4056 56.3284 29.1773C56.6872 28.7533 56.8828 28.199 56.9807 27.6446C57.0133 27.4163 57.0133 27.1554 56.9807 26.9598V26.8293L57.0785 26.9271C58.0894 27.7098 59.3939 27.9707 60.5026 27.775L60.47 27.8729C59.883 26.9271 59.0351 26.2097 58.1873 25.8184L58.0242 25.7532L58.1873 25.7205C58.9373 25.6227 59.6221 25.5249 60.2417 25.3292C60.8613 25.1335 61.3831 24.8074 61.7418 24.4161V24.4487C61.4157 24.0248 61.057 23.6661 60.6983 23.4704C60.3396 23.2747 59.9809 23.1769 59.6874 23.1117C59.3939 23.0465 59.1656 22.9812 59.0351 22.9486C58.9699 22.9486 58.9047 22.916 58.8721 22.916C58.8069 22.9486 58.8069 22.9486 58.8069 22.916Z" fill="#263238"/>
<path d="M95.7545 56.9283C98.559 56.4717 100.157 58.461 101.07 60.5481C99.9287 61.1677 98.396 60.972 97.3198 60.2546C96.2437 59.5371 95.6241 58.2327 95.7545 56.9283Z" fill="#455A64"/>
<path d="M95.7871 57.8067C95.7871 57.8067 95.8197 57.9697 95.9176 58.2958C96.0154 58.5893 96.1784 59.0459 96.5045 59.5024C96.6676 59.7307 96.8959 59.959 97.1568 60.122C97.4176 60.3177 97.7438 60.4808 98.1025 60.6112C98.4612 60.7416 98.8525 60.7742 99.2439 60.8069C99.6678 60.8395 100.059 60.8069 100.483 60.6764C100.679 60.6112 100.874 60.546 101.037 60.4807L101.005 60.546C100.711 59.7959 100.353 59.1111 99.9287 58.5893C99.5047 58.0349 99.0482 57.6436 98.5916 57.3827C98.1351 57.1218 97.7438 56.9914 97.4829 56.9588C97.1894 56.8936 97.0589 56.8936 97.0589 56.8936C97.0589 56.8936 97.0915 56.8936 97.1894 56.8936C97.2546 56.8936 97.385 56.8936 97.5155 56.9262C97.809 56.9588 98.2003 57.0892 98.6569 57.3501C99.1134 57.611 99.6026 58.0023 100.027 58.5567C100.45 59.1111 100.809 59.7959 101.135 60.546L101.168 60.6112L101.103 60.6438C100.94 60.709 100.744 60.7742 100.548 60.8395C100.124 60.9699 99.6678 61.0025 99.2765 60.9699C98.8525 60.9373 98.4612 60.8721 98.1025 60.7416C97.7438 60.6112 97.4176 60.4481 97.1241 60.2525C96.8633 60.0568 96.6024 59.8285 96.4393 59.6003C96.1132 59.1111 95.9828 58.6545 95.8849 58.361C95.8523 58.198 95.8197 58.0676 95.7871 58.0023C95.7871 57.8393 95.7871 57.8067 95.7871 57.8067Z" fill="#263238"/>
<path d="M81.1125 53.8296C83.917 53.3731 85.5149 55.3623 86.428 57.4494C85.2867 58.069 83.754 57.8734 82.6778 57.1559C81.6343 56.4385 80.982 55.1015 81.1125 53.8296Z" fill="#455A64"/>
<path d="M81.1449 54.6783C81.1449 54.6783 81.1775 54.8414 81.2753 55.1675C81.3731 55.461 81.5362 55.9176 81.8623 56.3741C82.0254 56.6024 82.2536 56.8307 82.5145 56.9937C82.7754 57.1894 83.1015 57.3524 83.4602 57.4829C83.8189 57.6133 84.2103 57.6459 84.6016 57.6785C85.0255 57.7112 85.4169 57.6785 85.8408 57.5481C86.0365 57.4829 86.2321 57.4177 86.3952 57.3524V57.4503C86.1017 56.7002 85.743 56.0154 85.319 55.4936C84.8951 54.9392 84.4386 54.5479 83.982 54.287C83.5254 54.0261 83.1341 53.8957 82.8732 53.8631C82.5797 53.7979 82.4493 53.7979 82.4493 53.7979C82.4493 53.7979 82.4819 53.7979 82.5797 53.7979C82.645 53.7979 82.7754 53.7978 82.9058 53.8305C83.1993 53.8631 83.5907 53.9935 84.0472 54.2544C84.5038 54.5153 84.9929 54.9066 85.4169 55.461C85.8408 56.0154 86.1995 56.7002 86.5256 57.4503L86.5583 57.5155L86.493 57.5481C86.33 57.6133 86.1343 57.6785 85.9386 57.7438C85.5147 57.8742 85.0582 57.9068 84.6668 57.8742C84.2429 57.8416 83.8516 57.7764 83.4928 57.6459C83.1341 57.5155 82.808 57.3524 82.5145 57.1568C82.2536 56.9611 81.9927 56.7328 81.8297 56.5045C81.5036 56.0154 81.3731 55.5588 81.2753 55.2653C81.2427 55.1023 81.2101 54.9718 81.1775 54.9066C81.1449 54.7436 81.1122 54.6783 81.1449 54.6783Z" fill="#263238"/>
<path d="M95.1028 57.7125C95.5594 59.7344 94.1571 61.0062 92.6896 61.7563C92.2005 60.941 92.2657 59.8322 92.7222 59.0169C93.2114 58.1691 94.1571 57.6473 95.1028 57.7125Z" fill="#455A64"/>
<path d="M94.483 57.7441C94.483 57.7441 94.3526 57.7767 94.1569 57.8746C93.9286 57.9724 93.6351 58.1029 93.309 58.3637C93.146 58.4942 93.0155 58.6572 92.8851 58.8855C92.7547 59.0812 92.6568 59.3421 92.5916 59.603C92.5264 59.8638 92.4938 60.1573 92.4938 60.4508C92.4938 60.7443 92.5264 61.0378 92.6242 61.3639C92.6568 61.4944 92.722 61.6248 92.7873 61.7553L92.722 61.7227C93.2438 61.4618 93.733 61.1683 94.0917 60.8422C94.483 60.5161 94.7439 60.1573 94.907 59.8312C95.2657 59.1464 95.2005 58.6572 95.2331 58.6899C95.2331 58.6899 95.2331 58.7225 95.2331 58.7877C95.2331 58.8529 95.2331 58.9181 95.2331 59.016C95.2005 59.2116 95.1679 59.5377 94.9722 59.8638C94.8091 60.2226 94.5482 60.5813 94.1569 60.94C93.7656 61.2661 93.2764 61.5922 92.7547 61.8205L92.6894 61.8531L92.6568 61.7879C92.5916 61.6574 92.559 61.527 92.4938 61.3966C92.3633 61.1031 92.3307 60.777 92.3633 60.4508C92.3633 60.1573 92.3959 59.8638 92.4612 59.5703C92.5264 59.3095 92.6568 59.0486 92.7873 58.8529C92.9177 58.6572 93.0808 58.4616 93.2438 58.3311C93.6025 58.0703 93.9286 57.9398 94.1243 57.8746C94.2221 57.842 94.32 57.8094 94.3852 57.8094C94.4504 57.7441 94.483 57.7441 94.483 57.7441Z" fill="#263238"/>
<path d="M80.7539 54.4516C81.2105 56.4735 79.8082 57.7453 78.3407 58.4954C77.8516 57.6801 77.9168 56.5713 78.3734 55.7561C78.8625 54.9408 79.8082 54.419 80.7539 54.4516Z" fill="#455A64"/>
<path d="M80.1339 54.5146C80.1339 54.5146 80.0035 54.5473 79.8078 54.6451C79.5795 54.7429 79.286 54.8734 78.9599 55.1343C78.7969 55.2647 78.6664 55.4278 78.536 55.656C78.4055 55.8517 78.3077 56.1126 78.2425 56.3735C78.1773 56.6344 78.1446 56.9278 78.1446 57.2213C78.1446 57.5148 78.1773 57.8083 78.2751 58.1344C78.3077 58.2649 78.3729 58.3953 78.4381 58.5258L78.3729 58.4932C78.8947 58.2323 79.3839 57.9388 79.7426 57.6127C80.1339 57.2866 80.3948 56.9278 80.5578 56.6017C80.9166 55.9169 80.8513 55.4277 80.884 55.4604C80.884 55.4604 80.884 55.493 80.884 55.5582C80.884 55.6234 80.884 55.6886 80.884 55.7865C80.8513 55.9821 80.8187 56.3082 80.6231 56.6344C80.46 56.9931 80.1991 57.3518 79.8078 57.7105C79.4165 58.0366 78.9273 58.3627 78.4055 58.591L78.3403 58.6236L78.3077 58.5584C78.2425 58.4279 78.2099 58.2975 78.1446 58.1671C78.0142 57.8736 77.9816 57.5474 78.0142 57.2213C78.0142 56.9278 78.0468 56.6344 78.112 56.3409C78.1773 56.08 78.3077 55.8191 78.4381 55.6234C78.5686 55.4277 78.7316 55.2321 78.8947 55.1016C79.2534 54.8408 79.5795 54.7103 79.7752 54.6451C79.873 54.6125 79.9709 54.5799 80.0361 54.5799C80.1013 54.5147 80.1339 54.5146 80.1339 54.5146Z" fill="#263238"/>
<path d="M68.622 54.3525C70.6765 53.9938 71.8504 55.4613 72.5353 56.9614C71.72 57.4179 70.5786 57.2875 69.796 56.7657C68.9807 56.2766 68.5241 55.2982 68.622 54.3525Z" fill="#455A64"/>
<path d="M68.622 54.9736C68.622 54.9736 68.6546 55.104 68.7198 55.3323C68.785 55.5606 68.9155 55.8867 69.1437 56.2128C69.2742 56.3758 69.4372 56.5389 69.6329 56.6693C69.8286 56.7998 70.0568 56.9302 70.3177 56.9954C70.5786 57.0933 70.8721 57.1259 71.1656 57.1259C71.4591 57.1585 71.7852 57.1259 72.0787 57.0281C72.2092 56.9955 72.3396 56.9302 72.47 56.8976L72.4374 56.9628C72.2092 56.4085 71.9483 55.9193 71.6548 55.528C71.3613 55.1366 71.0026 54.8431 70.6764 54.6475C70.0242 54.2561 69.5351 54.2888 69.5351 54.2888C69.5351 54.2888 69.5677 54.2888 69.6329 54.2888C69.6981 54.2888 69.7633 54.2887 69.8612 54.3214C70.0568 54.354 70.3829 54.4192 70.7091 54.6149C71.0352 54.8105 71.3939 55.104 71.72 55.4954C72.0461 55.8867 72.307 56.4085 72.5353 56.9302L72.5679 56.9954L72.5027 57.0281C72.3722 57.0607 72.2418 57.1259 72.0787 57.1585C71.7526 57.2563 71.4265 57.2889 71.133 57.2563C70.8395 57.2237 70.546 57.1911 70.2525 57.0933C69.9916 56.9954 69.7307 56.865 69.5351 56.7346C69.3394 56.6041 69.1437 56.4411 69.0459 56.2454C68.8176 55.8867 68.7198 55.5606 68.6546 55.3323C68.622 55.2019 68.622 55.1366 68.5894 55.0714C68.622 55.0062 68.622 54.9736 68.622 54.9736Z" fill="#263238"/>
<path d="M76.1226 49.4591C76.4487 50.7961 75.5356 51.6766 74.5572 52.1984C74.1985 51.6766 74.2311 50.9266 74.5572 50.3722C74.8834 49.7852 75.503 49.4265 76.1226 49.4591Z" fill="#455A64"/>
<path d="M75.7312 49.4932C75.7312 49.4932 75.6659 49.5258 75.5029 49.591C75.3724 49.6562 75.1442 49.754 74.9485 49.9171C74.7528 50.0802 74.5572 50.3737 74.4919 50.7324C74.4593 50.8954 74.4267 51.0911 74.4267 51.2868C74.4267 51.4824 74.4593 51.6781 74.5246 51.8737C74.5572 51.9716 74.5898 52.0368 74.6224 52.1346L74.5572 52.102C74.9159 51.939 75.2094 51.7107 75.4703 51.515C75.7312 51.2868 75.8942 51.0585 75.992 50.8302C76.2203 50.3737 76.1877 50.0475 76.1877 50.0475C76.1877 50.0475 76.2203 50.1128 76.1877 50.2758C76.1877 50.4063 76.1551 50.6345 76.0247 50.8628C75.9268 51.0911 75.7312 51.352 75.5029 51.5803C75.242 51.8085 74.9159 52.0368 74.5898 52.1999L74.5246 52.2325L74.4919 52.1672C74.4593 52.0694 74.4267 52.0042 74.3615 51.9064C74.2637 51.7107 74.2637 51.4824 74.2637 51.2868C74.2637 51.0911 74.2637 50.8954 74.3289 50.6998C74.4267 50.341 74.6224 50.0149 74.8507 49.8519C75.0789 49.6888 75.3072 49.591 75.4377 49.5258C75.6333 49.4932 75.6985 49.4932 75.7312 49.4932Z" fill="#263238"/>
<path d="M67.6437 30.385C69.0134 30.1567 69.796 31.1351 70.2526 32.146C69.6982 32.4395 68.9482 32.3417 68.4264 32.0156C67.872 31.6568 67.5785 31.0046 67.6437 30.385Z" fill="#455A64"/>
<path d="M67.6443 30.8101C67.6443 30.8101 67.6769 30.9079 67.7095 31.0383C67.7747 31.1688 67.84 31.3971 68.003 31.6253C68.1661 31.8536 68.4596 32.0493 68.7857 32.1471C68.9487 32.2123 69.1444 32.2449 69.34 32.2449C69.5357 32.2449 69.7314 32.2449 69.927 32.1797C70.0249 32.1471 70.1227 32.1145 70.1879 32.0819L70.1553 32.1471C69.9923 31.7884 69.8292 31.4623 69.6335 31.2014C69.4379 30.9405 69.2096 30.7448 68.9813 30.6144C68.5574 30.3535 68.2313 30.3861 68.2313 30.3535C68.2313 30.3535 68.2965 30.3535 68.4596 30.3535C68.59 30.3861 68.8183 30.4187 69.0466 30.5492C69.2748 30.6796 69.5031 30.8753 69.7314 31.1362C69.9597 31.3971 70.1227 31.7558 70.2858 32.1145L70.3184 32.1797L70.2532 32.2123C70.1553 32.2449 70.0575 32.2776 69.9597 32.3102C69.764 32.3754 69.5357 32.3754 69.3074 32.3754C69.1118 32.3428 68.9161 32.3428 68.7204 32.2776C68.3617 32.1471 68.0682 31.9514 67.9052 31.6906C67.7421 31.4623 67.6769 31.234 67.6443 31.071C67.6443 30.9079 67.6443 30.8101 67.6443 30.8101Z" fill="#263238"/>
<path d="M196.587 117.942L195.315 118.822L196.033 117.551C195.706 117.322 195.348 117.094 195.022 116.866L193.75 118.301L194.5 116.507C194.174 116.279 193.815 116.083 193.456 115.855L192.315 118.105L192.967 115.561C192.804 115.463 192.608 115.366 192.445 115.268L191.108 118.17L191.924 114.974C191.402 114.681 190.847 114.42 190.293 114.126C189.543 115.203 188.141 117.257 188.141 117.257L189.217 113.637C188.173 113.181 187.065 112.724 185.923 112.333L184.293 116.735L185.01 112.039C184.064 111.746 183.086 111.518 182.075 111.289L180.445 116.474L180.934 111.061C180.705 111.028 180.477 110.996 180.249 110.931L179.466 116.474L178.977 110.768C177.738 110.604 176.401 110.507 175.031 110.474L174.183 116.05L173.825 110.441C173.498 110.441 173.205 110.441 172.879 110.441L172.846 116.018L171.933 110.474C171.77 110.474 171.64 110.474 171.477 110.474C170.694 110.507 169.944 110.572 169.226 110.604L168.215 117.485V110.702C167.922 110.735 167.628 110.768 167.335 110.768L166.878 117.42L166.161 110.865C164.824 111.028 163.552 111.191 162.378 111.42L161.595 117.616L161.041 111.681C160.813 111.713 160.585 111.778 160.356 111.811L160.617 117.551L159.15 112.072C158.106 112.3 157.128 112.594 156.215 112.855L156.704 117.616L155.269 113.148C154.03 113.539 152.921 113.963 151.943 114.387L152.856 117.975C152.856 117.975 151.617 115.985 150.899 114.876C150.28 115.17 149.725 115.431 149.236 115.724L149.856 118.757L148.747 115.985C148.551 116.083 148.356 116.214 148.192 116.311L148.682 118.627L147.736 116.572C147.345 116.801 146.986 117.061 146.692 117.29L147.247 118.757L146.301 117.583C145.877 117.877 145.551 118.17 145.257 118.431L145.681 119.246L144.964 118.725C144.67 118.985 144.475 119.214 144.312 119.377L144.344 119.442H171.868L199 119.475C198.152 118.953 197.402 118.529 196.587 117.942Z" fill="#455A64"/>
<path d="M110.495 84.1582H65.2307V119.574H110.495V84.1582Z" fill="#E0E0E0"/>
<path d="M110.462 119.541V81.4846L142.551 45.7432L174.477 82.6586V119.541H110.462Z" fill="#FAFAFA"/>
<g opacity="0.3">
<path d="M155.726 57.8086H130.583V59.8631H155.726V57.8086Z" fill="black"/>
</g>
<path d="M154.323 56.668H130.648V58.592H154.323V56.668Z" fill="#FF725E"/>
<path d="M110.462 90.126H34.6418V119.541H110.462V90.126Z" fill="#FAFAFA"/>
<path d="M174.477 112.301H34.5439V119.638H174.477V112.301Z" fill="#EBEBEB"/>
<path d="M119.364 115.692H115.125C114.668 115.692 114.277 115.301 114.277 114.844V114.42C114.277 113.964 114.668 113.572 115.125 113.572H119.364C119.821 113.572 120.212 113.964 120.212 114.42V114.844C120.212 115.301 119.821 115.692 119.364 115.692Z" fill="#E0E0E0"/>
<path d="M126.147 115.692H121.908C121.451 115.692 121.06 115.301 121.06 114.844V114.42C121.06 113.964 121.451 113.572 121.908 113.572H126.147C126.604 113.572 126.995 113.964 126.995 114.42V114.844C126.995 115.301 126.604 115.692 126.147 115.692Z" fill="#E0E0E0"/>
<path d="M132.93 115.692H128.691C128.234 115.692 127.843 115.301 127.843 114.844V114.42C127.843 113.964 128.234 113.572 128.691 113.572H132.93C133.387 113.572 133.778 113.964 133.778 114.42V114.844C133.778 115.301 133.387 115.692 132.93 115.692Z" fill="#E0E0E0"/>
<path d="M139.713 115.692H135.474C135.017 115.692 134.626 115.301 134.626 114.844V114.42C134.626 113.964 135.017 113.572 135.474 113.572H139.713C140.17 113.572 140.561 113.964 140.561 114.42V114.844C140.561 115.301 140.17 115.692 139.713 115.692Z" fill="#E0E0E0"/>
<path d="M146.497 115.692H142.257C141.801 115.692 141.409 115.301 141.409 114.844V114.42C141.409 113.964 141.801 113.572 142.257 113.572H146.497C146.953 113.572 147.345 113.964 147.345 114.42V114.844C147.345 115.301 146.986 115.692 146.497 115.692Z" fill="#E0E0E0"/>
<path d="M153.28 115.692H149.04C148.584 115.692 148.192 115.301 148.192 114.844V114.42C148.192 113.964 148.584 113.572 149.04 113.572H153.28C153.736 113.572 154.128 113.964 154.128 114.42V114.844C154.128 115.301 153.769 115.692 153.28 115.692Z" fill="#E0E0E0"/>
<path d="M160.063 115.692H155.823C155.367 115.692 154.976 115.301 154.976 114.844V114.42C154.976 113.964 155.367 113.572 155.823 113.572H160.063C160.519 113.572 160.911 113.964 160.911 114.42V114.844C160.911 115.301 160.552 115.692 160.063 115.692Z" fill="#E0E0E0"/>
<path d="M166.846 115.692H162.606C162.15 115.692 161.758 115.301 161.758 114.844V114.42C161.758 113.964 162.15 113.572 162.606 113.572H166.846C167.302 113.572 167.693 113.964 167.693 114.42V114.844C167.726 115.301 167.335 115.692 166.846 115.692Z" fill="#E0E0E0"/>
<path d="M173.629 115.692H169.39C168.933 115.692 168.542 115.301 168.542 114.844V114.42C168.542 113.964 168.933 113.572 169.39 113.572H173.629C174.086 113.572 174.477 113.964 174.477 114.42V114.844C174.51 115.301 174.118 115.692 173.629 115.692Z" fill="#E0E0E0"/>
<path d="M112.581 115.692H108.342C107.885 115.692 107.494 115.301 107.494 114.844V114.42C107.494 113.964 107.885 113.572 108.342 113.572H112.581C113.038 113.572 113.429 113.964 113.429 114.42V114.844C113.429 115.301 113.038 115.692 112.581 115.692Z" fill="#E0E0E0"/>
<path d="M116.919 118.497H112.484C112.027 118.497 111.636 118.105 111.636 117.649V117.225C111.636 116.768 112.027 116.377 112.484 116.377H116.919C117.375 116.377 117.767 116.768 117.767 117.225V117.649C117.767 118.105 117.408 118.497 116.919 118.497Z" fill="#E0E0E0"/>
<path d="M109.711 118.497H105.276C104.82 118.497 104.428 118.105 104.428 117.649V117.225C104.428 116.768 104.82 116.377 105.276 116.377H109.711C110.168 116.377 110.559 116.768 110.559 117.225V117.649C110.559 118.105 110.168 118.497 109.711 118.497Z" fill="#E0E0E0"/>
<path d="M105.766 115.692H101.527C101.07 115.692 100.679 115.301 100.679 114.844V114.42C100.679 113.964 101.07 113.572 101.527 113.572H105.766C106.223 113.572 106.614 113.964 106.614 114.42V114.844C106.614 115.301 106.223 115.692 105.766 115.692Z" fill="#E0E0E0"/>
<path d="M102.896 118.497H98.4609C98.0044 118.497 97.613 118.105 97.613 117.649V117.225C97.613 116.768 98.0044 116.377 98.4609 116.377H102.896C103.353 116.377 103.744 116.768 103.744 117.225V117.649C103.744 118.105 103.353 118.497 102.896 118.497Z" fill="#E0E0E0"/>
<path d="M98.9501 115.692H94.7107C94.2541 115.692 93.8628 115.301 93.8628 114.844V114.42C93.8628 113.964 94.2541 113.572 94.7107 113.572H98.9501C99.4066 113.572 99.798 113.964 99.798 114.42V114.844C99.798 115.301 99.4392 115.692 98.9501 115.692Z" fill="#E0E0E0"/>
<path d="M96.0803 118.497H91.6452C91.1887 118.497 90.7974 118.105 90.7974 117.649V117.225C90.7974 116.768 91.1887 116.377 91.6452 116.377H96.0803C96.5369 116.377 96.9282 116.768 96.9282 117.225V117.649C96.9282 118.105 96.5695 118.497 96.0803 118.497Z" fill="#E0E0E0"/>
<path d="M92.1669 115.692H87.9275C87.4709 115.692 87.0796 115.301 87.0796 114.844V114.42C87.0796 113.964 87.4709 113.572 87.9275 113.572H92.1669C92.6234 113.572 93.0148 113.964 93.0148 114.42V114.844C93.0148 115.301 92.6234 115.692 92.1669 115.692Z" fill="#E0E0E0"/>
<path d="M89.2646 118.497H84.8296C84.373 118.497 83.9817 118.105 83.9817 117.649V117.225C83.9817 116.768 84.373 116.377 84.8296 116.377H89.2646C89.7212 116.377 90.1125 116.768 90.1125 117.225V117.649C90.1451 118.105 89.7538 118.497 89.2646 118.497Z" fill="#E0E0E0"/>
<path d="M85.3512 115.692H81.1118C80.6552 115.692 80.2639 115.301 80.2639 114.844V114.42C80.2639 113.964 80.6552 113.572 81.1118 113.572H85.3512C85.8078 113.572 86.1991 113.964 86.1991 114.42V114.844C86.1991 115.301 85.8078 115.692 85.3512 115.692Z" fill="#E0E0E0"/>
<path d="M82.4817 118.497H78.0466C77.5901 118.497 77.1987 118.105 77.1987 117.649V117.225C77.1987 116.768 77.5901 116.377 78.0466 116.377H82.4817C82.9382 116.377 83.3296 116.768 83.3296 117.225V117.649C83.3296 118.105 82.9382 118.497 82.4817 118.497Z" fill="#E0E0E0"/>
<path d="M78.5355 115.692H74.2961C73.8396 115.692 73.4482 115.301 73.4482 114.844V114.42C73.4482 113.964 73.8396 113.572 74.2961 113.572H78.5355C78.9921 113.572 79.3834 113.964 79.3834 114.42V114.844C79.3834 115.301 78.9921 115.692 78.5355 115.692Z" fill="#E0E0E0"/>
<path d="M75.666 118.497H71.2309C70.7744 118.497 70.3831 118.105 70.3831 117.649V117.225C70.3831 116.768 70.7744 116.377 71.2309 116.377H75.666C76.1226 116.377 76.5139 116.768 76.5139 117.225V117.649C76.5139 118.105 76.1226 118.497 75.666 118.497Z" fill="#E0E0E0"/>
<path d="M71.7201 115.692H67.4807C67.0241 115.692 66.6328 115.301 66.6328 114.844V114.42C66.6328 113.964 67.0241 113.572 67.4807 113.572H71.7201C72.1767 113.572 72.568 113.964 72.568 114.42V114.844C72.568 115.301 72.2093 115.692 71.7201 115.692Z" fill="#E0E0E0"/>
<path d="M68.8503 118.497H64.4153C63.9587 118.497 63.5674 118.105 63.5674 117.649V117.225C63.5674 116.768 63.9587 116.377 64.4153 116.377H68.8503C69.3069 116.377 69.6982 116.768 69.6982 117.225V117.649C69.6982 118.105 69.3395 118.497 68.8503 118.497Z" fill="#E0E0E0"/>
<path d="M64.9369 115.692H60.6975C60.2409 115.692 59.8496 115.301 59.8496 114.844V114.42C59.8496 113.964 60.2409 113.572 60.6975 113.572H64.9369C65.3934 113.572 65.7848 113.964 65.7848 114.42V114.844C65.7848 115.301 65.3934 115.692 64.9369 115.692Z" fill="#E0E0E0"/>
<path d="M62.0671 118.497H57.6321C57.1755 118.497 56.7842 118.105 56.7842 117.649V117.225C56.7842 116.768 57.1755 116.377 57.6321 116.377H62.0671C62.5237 116.377 62.915 116.768 62.915 117.225V117.649C62.915 118.105 62.5237 118.497 62.0671 118.497Z" fill="#E0E0E0"/>
<path d="M58.1212 115.692H53.8818C53.4253 115.692 53.0339 115.301 53.0339 114.844V114.42C53.0339 113.964 53.4253 113.572 53.8818 113.572H58.1212C58.5778 113.572 58.9691 113.964 58.9691 114.42V114.844C58.9691 115.301 58.5778 115.692 58.1212 115.692Z" fill="#E0E0E0"/>
<path d="M55.2515 118.497H50.8164C50.3598 118.497 49.9685 118.105 49.9685 117.649V117.225C49.9685 116.768 50.3598 116.377 50.8164 116.377H55.2515C55.708 116.377 56.0993 116.768 56.0993 117.225V117.649C56.0993 118.105 55.708 118.497 55.2515 118.497Z" fill="#E0E0E0"/>
<path d="M51.3058 115.692H47.0664C46.6098 115.692 46.2185 115.301 46.2185 114.844V114.42C46.2185 113.964 46.6098 113.572 47.0664 113.572H51.3058C51.7623 113.572 52.1537 113.964 52.1537 114.42V114.844C52.1537 115.301 51.795 115.692 51.3058 115.692Z" fill="#E0E0E0"/>
<path d="M48.4358 118.497H44.0007C43.5442 118.497 43.1528 118.105 43.1528 117.649V117.225C43.1528 116.768 43.5442 116.377 44.0007 116.377H48.4358C48.8923 116.377 49.2837 116.768 49.2837 117.225V117.649C49.2837 118.105 48.9249 118.497 48.4358 118.497Z" fill="#E0E0E0"/>
<path d="M44.4901 115.692H40.2507C39.7942 115.692 39.4028 115.301 39.4028 114.844V114.42C39.4028 113.964 39.7942 113.572 40.2507 113.572H44.4901C44.9467 113.572 45.338 113.964 45.338 114.42V114.844C45.3706 115.301 44.9793 115.692 44.4901 115.692Z" fill="#E0E0E0"/>
<path d="M41.6204 118.497H37.1853C36.7287 118.497 36.3374 118.105 36.3374 117.649V117.225C36.3374 116.768 36.7287 116.377 37.1853 116.377H41.6204C42.0769 116.377 42.4682 116.768 42.4682 117.225V117.649C42.4682 118.105 42.1095 118.497 41.6204 118.497Z" fill="#E0E0E0"/>
<path d="M37.707 115.692H35.4895C35.0329 115.692 34.6416 115.301 34.6416 114.844V114.42C34.6416 113.964 35.0329 113.572 35.4895 113.572H37.707C38.1636 113.572 38.5549 113.964 38.5549 114.42V114.844C38.5549 115.301 38.1636 115.692 37.707 115.692Z" fill="#E0E0E0"/>
<path d="M35.1304 118.497C34.8369 118.497 34.6086 118.269 34.6086 117.975V116.932C34.6086 116.638 34.8369 116.41 35.1304 116.41C35.4239 116.41 35.6522 116.638 35.6522 116.932V117.975C35.6848 118.236 35.4239 118.497 35.1304 118.497Z" fill="#E0E0E0"/>
<path d="M124.093 118.497H119.658C119.201 118.497 118.81 118.105 118.81 117.649V117.225C118.81 116.768 119.201 116.377 119.658 116.377H124.093C124.549 116.377 124.941 116.768 124.941 117.225V117.649C124.941 118.105 124.549 118.497 124.093 118.497Z" fill="#E0E0E0"/>
<path d="M131.006 118.497H126.571C126.115 118.497 125.723 118.105 125.723 117.649V117.225C125.723 116.768 126.115 116.377 126.571 116.377H131.006C131.463 116.377 131.854 116.768 131.854 117.225V117.649C131.854 118.105 131.463 118.497 131.006 118.497Z" fill="#E0E0E0"/>
<path d="M137.887 118.497H133.452C132.996 118.497 132.604 118.105 132.604 117.649V117.225C132.604 116.768 132.996 116.377 133.452 116.377H137.887C138.344 116.377 138.735 116.768 138.735 117.225V117.649C138.735 118.105 138.344 118.497 137.887 118.497Z" fill="#E0E0E0"/>
<path d="M144.768 118.497H140.333C139.877 118.497 139.485 118.105 139.485 117.649V117.225C139.485 116.768 139.877 116.377 140.333 116.377H144.768C145.225 116.377 145.616 116.768 145.616 117.225V117.649C145.649 118.105 145.257 118.497 144.768 118.497Z" fill="#E0E0E0"/>
<path d="M151.682 118.497H147.247C146.79 118.497 146.399 118.105 146.399 117.649V117.225C146.399 116.768 146.79 116.377 147.247 116.377H151.682C152.138 116.377 152.53 116.768 152.53 117.225V117.649C152.53 118.105 152.138 118.497 151.682 118.497Z" fill="#E0E0E0"/>
<path d="M158.562 118.497H154.127C153.671 118.497 153.28 118.105 153.28 117.649V117.225C153.28 116.768 153.671 116.377 154.127 116.377H158.562C159.019 116.377 159.41 116.768 159.41 117.225V117.649C159.41 118.105 159.052 118.497 158.562 118.497Z" fill="#E0E0E0"/>
<path d="M165.476 118.497H161.041C160.584 118.497 160.193 118.105 160.193 117.649V117.225C160.193 116.768 160.584 116.377 161.041 116.377H165.476C165.933 116.377 166.324 116.768 166.324 117.225V117.649C166.324 118.105 165.933 118.497 165.476 118.497Z" fill="#E0E0E0"/>
<path d="M172.357 118.497H167.922C167.465 118.497 167.074 118.105 167.074 117.649V117.225C167.074 116.768 167.465 116.377 167.922 116.377H172.357C172.813 116.377 173.205 116.768 173.205 117.225V117.649C173.205 118.105 172.846 118.497 172.357 118.497Z" fill="#E0E0E0"/>
<path d="M98.1024 40.6882L60.6326 80.1799V84.9085H110.462L142.551 45.7429L174.477 82.6583V84.9085H180.086V82.3322L142.942 40.2969L98.1024 40.6882Z" fill="#FF725E"/>
<path d="M139.942 66.4844H129.931V88.3662H139.942V66.4844Z" fill="#E0E0E0"/>
<path d="M139.453 67.2012H130.583V87.4199H139.453V67.2012Z" fill="#263238"/>
<path d="M138.768 68.083H131.3V86.5407H138.768V68.083Z" fill="#455A64"/>
<g opacity="0.3">
<path d="M138.768 68.083H131.3V68.7678H138.768V68.083Z" fill="black"/>
</g>
<g opacity="0.3">
<path d="M137.399 68.083L131.3 73.1051V76.9205L138.768 70.6266V68.083H137.399Z" fill="white"/>
</g>
<g opacity="0.3">
<path d="M131.3 78.4205V80.1815L138.768 74.018V73.431V72.3223L131.3 78.4205Z" fill="white"/>
</g>
<path d="M135.213 67.7881H134.855V86.8654H135.213V67.7881Z" fill="#263238"/>
<path d="M154.291 66.4844H144.279V88.3662H154.291V66.4844Z" fill="#E0E0E0"/>
<path d="M153.834 67.2012H144.964V87.4199H153.834V67.2012Z" fill="#263238"/>
<path d="M153.117 68.083H145.649V86.5407H153.117V68.083Z" fill="#455A64"/>
<g opacity="0.3">
<path d="M153.117 68.083H145.649V68.7678H153.117V68.083Z" fill="black"/>
</g>
<g opacity="0.3">
<path d="M151.78 68.083L145.649 73.1051V76.9205L153.117 70.6266V68.083H151.78Z" fill="white"/>
</g>
<g opacity="0.3">
<path d="M145.649 78.4205V80.1815L153.117 74.018V73.431V72.3223L145.649 78.4205Z" fill="white"/>
</g>
<path d="M149.562 67.7881H149.203V86.8654H149.562V67.7881Z" fill="#263238"/>
<path d="M129.637 93.2246H117.017V111.845H129.637V93.2246Z" fill="#E0E0E0"/>
<path d="M129.018 94.0723H117.832V111.291H129.018V94.0723Z" fill="#263238"/>
<path d="M128.039 94.8867H118.647V110.475H128.039V94.8867Z" fill="#455A64"/>
<g opacity="0.3">
<path d="M125.626 94.9209L118.647 102.161V107.411L128.039 96.9754V94.9209H125.626Z" fill="white"/>
</g>
<g opacity="0.3">
<path d="M128.039 104.411L121.908 110.509H124.615L128.039 106.792V104.411Z" fill="white"/>
</g>
<path d="M123.702 94.6602H123.18V110.705H123.702V94.6602Z" fill="#263238"/>
<path d="M170.107 93.2246H157.487V111.845H170.107V93.2246Z" fill="#E0E0E0"/>
<path d="M169.39 94.0732H158.204V111.292H169.39V94.0732Z" fill="#263238"/>
<path d="M168.411 94.8877H159.019V110.476H168.411V94.8877Z" fill="#455A64"/>
<g opacity="0.3">
<path d="M165.998 94.9209L159.02 102.161V107.411L168.411 96.9754V94.9209H165.998Z" fill="white"/>
</g>
<g opacity="0.3">
<path d="M168.411 104.411L162.281 110.509H164.987L168.411 106.792V104.411Z" fill="white"/>
</g>
<path d="M164.074 94.6602H163.552V110.705H164.074V94.6602Z" fill="#263238"/>
<g opacity="0.3">
<path d="M63.4374 90.126H34.5442V119.639H63.4374V90.126Z" fill="black"/>
</g>
<path d="M54.9583 94.2363H42.6641V98.3453H54.9583V94.2363Z" fill="#263238"/>
<path d="M54.5999 94.5947H43.0557V98.0189H54.5999V94.5947Z" fill="#455A64"/>
<g opacity="0.3">
<path d="M43.0557 97.4319L49.3169 94.5947H52.0889L44.9797 97.9862H43.0557V97.4319Z" fill="white"/>
</g>
<g opacity="0.3">
<path d="M47.1646 97.9857C47.2298 97.9857 53.328 94.5615 53.328 94.5615C53.328 94.5615 54.2411 94.5615 54.1759 94.5615C54.1107 94.5615 47.8494 97.9857 47.8494 97.9857H47.1646Z" fill="white"/>
</g>
<path d="M104.527 94.9209H72.5681V119.64H104.527V94.9209Z" fill="#E0E0E0"/>
<path d="M102.798 96.2891H73.8401V119.638H102.798V96.2891Z" fill="#263238"/>
<path d="M110.462 87.5498H33.1416V90.1261H110.462V87.5498Z" fill="#FF725E"/>
<path d="M151.193 93.2246H136.126V119.639H151.193V93.2246Z" fill="#E0E0E0"/>
<path d="M149.921 94.5293H137.203V119.737H149.921V94.5293Z" fill="#263238"/>
<g opacity="0.3">
<path d="M110.299 80.1807H60.6326V84.9092H110.299V80.1807Z" fill="black"/>
</g>
<g opacity="0.3">
<path d="M59.9803 87.5498H33.1416V90.1261H59.9803V87.5498Z" fill="black"/>
</g>
<path d="M36.631 86.6367H35.9136V119.541H36.631V86.6367Z" fill="#E0E0E0"/>
<path d="M36.6307 119.541C36.6307 119.541 36.6307 119.475 36.6307 119.378C36.6307 119.247 36.6307 119.084 36.6307 118.888C36.6307 118.432 36.6307 117.812 36.6307 116.964C36.6307 115.301 36.6307 112.888 36.5981 109.92C36.5981 103.985 36.5655 95.7673 36.5655 86.6689L36.6633 86.7667C36.435 86.7667 36.2068 86.7667 35.9459 86.7667L36.0437 86.6689C36.0437 102.876 36.0111 116.41 35.9785 119.573L35.9459 119.541C36.1741 119.541 36.3372 119.541 36.4676 119.541C36.3372 119.541 36.1741 119.541 35.9133 119.541H35.8807V119.508C35.848 116.345 35.8154 102.811 35.8154 86.6037L35.9133 86.5059C36.1415 86.5059 36.4024 86.5059 36.6307 86.5059H36.7285V86.6037C36.7285 95.7347 36.6959 103.985 36.6959 109.92C36.6959 112.888 36.6633 115.269 36.6633 116.932C36.6633 117.747 36.6633 118.399 36.6633 118.823C36.6633 119.019 36.6633 119.182 36.6633 119.312C36.6307 119.508 36.6307 119.541 36.6307 119.541Z" fill="black"/>
<g opacity="0.3">
<path d="M110.332 90.126H34.6418V91.1369H110.332V90.126Z" fill="black"/>
</g>
<path d="M98.2979 98.8018H78.7966V101.606H98.2979V98.8018Z" fill="#455A64"/>
<g opacity="0.3">
<path d="M87.406 101.638L98.298 99.29V100.529L92.4933 101.638H87.5364" fill="white"/>
</g>
<path d="M92.7869 98.5723H92.4282V101.866H92.7869V98.5723Z" fill="#263238"/>
<g opacity="0.3">
<path d="M78.7966 100.465L86.2971 98.8018H89.1016L78.7966 101.182V100.465Z" fill="white"/>
</g>
<path d="M85.0907 98.5723H84.7319V101.866H85.0907V98.5723Z" fill="#263238"/>
<path d="M90.2436 117.684H87.6347C87.4716 117.684 87.3086 117.553 87.3086 117.358V117.162C87.3086 116.999 87.439 116.836 87.6347 116.836H90.2436C90.4066 116.836 90.5697 116.966 90.5697 117.162V117.358C90.5697 117.553 90.4066 117.684 90.2436 117.684Z" fill="#455A64"/>
<path d="M102.114 119.02C102.114 119.02 102.114 118.889 102.114 118.596C102.114 118.335 102.114 117.944 102.114 117.422C102.114 116.378 102.114 114.878 102.081 112.954C102.081 109.106 102.048 103.595 102.048 96.9748L102.114 97.04C94.2219 97.04 84.7322 97.04 74.4924 97.04L74.5902 96.9422C74.5902 104.899 74.5902 112.432 74.5902 118.987L74.525 118.922C82.7103 118.922 89.6238 118.954 94.4502 118.954C96.8634 118.954 98.7874 118.954 100.092 118.987C100.744 118.987 101.233 118.987 101.592 118.987C101.755 118.987 101.885 118.987 101.983 118.987C102.081 119.02 102.114 119.02 102.114 119.02C102.114 119.02 102.081 119.02 101.983 119.02C101.885 119.02 101.755 119.02 101.592 119.02C101.266 119.02 100.744 119.02 100.092 119.02C98.7874 119.02 96.8634 119.02 94.4502 119.052C89.5912 119.052 82.6777 119.085 74.4598 119.085H74.3945V119.02C74.3945 112.465 74.3945 104.932 74.3945 96.9748V96.877H74.4924C84.6995 96.877 94.2219 96.877 102.114 96.877H102.179V96.9422C102.179 103.595 102.146 109.106 102.146 112.987C102.146 114.911 102.146 116.411 102.114 117.454C102.114 117.976 102.114 118.367 102.114 118.628C102.114 118.889 102.114 119.02 102.114 119.02Z" fill="#455A64"/>
<path d="M148.062 96.7139H139.094V99.8445H148.062V96.7139Z" fill="#455A64"/>
<path d="M142.877 101.182H139.094V109.334H142.877V101.182Z" fill="#455A64"/>
<path d="M147.899 101.182H144.116V109.334H147.899V101.182Z" fill="#455A64"/>
<g opacity="0.3">
<path d="M147.899 101.671L144.116 104.997V107.41L147.899 103.888V101.671Z" fill="white"/>
</g>
<g opacity="0.3">
<path d="M139.094 106.041V106.758V107.019L142.877 103.758V102.682L139.094 106.041Z" fill="white"/>
</g>
<path d="M145.584 91.2354H141.736V92.7028H145.584V91.2354Z" fill="#E0E0E0"/>
<path d="M148.552 110.835C148.552 111.161 148.291 111.422 147.965 111.422C147.639 111.422 147.378 111.161 147.378 110.835C147.378 110.509 147.639 110.248 147.965 110.248C148.291 110.248 148.552 110.509 148.552 110.835Z" fill="#455A64"/>
<g opacity="0.3">
<path d="M141.409 47.1454L174.477 84.9087H176.173V82.6586H174.477L142.551 45.7432L141.409 47.1454Z" fill="black"/>
</g>
<path d="M80.1991 69.1578V51.5806H78.4707V47.1455H84.8624H94.5804V51.5806H93.2108L92.9825 63.3531L87.6996 69.1578H80.1991Z" fill="#F5F5F5"/>
<path d="M89.8193 51.6132H87.83V69.1578H80.1991V51.5806H78.4707V47.1455H89.8193V51.6132Z" fill="#E0E0E0"/>
<path d="M88.8408 70.2004C89.0691 70.2004 97.4501 60.4824 97.4501 60.4824H105.048L96.5696 70.2004H88.8408Z" fill="#263238"/>
<path d="M90.439 69.5163C91.1238 68.7663 92.1347 67.5923 93.7 65.7987C95.4284 63.8421 97.1242 61.8528 97.7112 61.168H103.483L96.2437 69.5163H90.439Z" fill="#455A64"/>
<path d="M100.777 70.2004C101.005 70.2004 109.386 60.4824 109.386 60.4824H116.984L108.505 70.2004H100.777Z" fill="#263238"/>
<path d="M102.407 69.5163C103.092 68.7663 104.102 67.5923 105.668 65.7987C107.396 63.8421 109.092 61.8528 109.679 61.168H115.451L108.179 69.5163H102.407Z" fill="#455A64"/>
<g opacity="0.3">
<path d="M95.0044 64.3644L102.57 62.2773L100.255 64.9514L92.5586 67.169L95.0044 64.3644Z" fill="white"/>
</g>
<g opacity="0.3">
<path d="M105.179 66.3537L112.745 64.2666L110.429 66.9407L102.733 69.1582L105.179 66.3537Z" fill="white"/>
</g>
<g opacity="0.3">
<path d="M93.1783 51.5811H80.1992V52.4615H93.1783V51.5811Z" fill="black"/>
</g>
<path d="M110.429 119.542C110.397 119.542 110.332 113.02 110.332 104.965C110.332 96.9099 110.364 90.3877 110.429 90.3877C110.462 90.3877 110.527 96.9099 110.527 104.965C110.495 113.02 110.462 119.542 110.429 119.542Z" fill="#263238"/>
<path d="M213.525 30.2055C213.312 28.0663 212.29 26.0126 210.842 24.3868C209.437 22.8038 207.605 21.5202 205.561 21.0496C203.389 20.5362 201.004 21.0068 199.13 22.2476C198.023 23.0177 197.129 24.0445 196.49 25.1997C195.894 24.1301 195.042 23.2316 194.062 22.5043C192.231 21.2207 189.846 20.7073 187.632 21.178C185.545 21.6058 183.713 22.8466 182.265 24.4296C180.817 26.0554 179.753 28.0235 179.497 30.2055C179.157 32.9009 179.668 35.8531 181.03 38.2062C182.478 40.6877 184.821 42.6986 187.291 44.1961C191.379 46.7204 196.788 49.8864 196.788 49.8864C196.788 49.8864 201.387 46.5065 205.519 44.0249C207.989 42.5703 210.374 40.6022 211.864 38.1634C213.27 35.8531 213.823 32.9009 213.525 30.2055Z" fill="#FF725E"/>
</svg>
