<svg width="34" height="27" viewBox="0 0 34 27" fill="none" xmlns="http://www.w3.org/2000/svg">
<path fill-rule="evenodd" clip-rule="evenodd" d="M0.154297 4.60946C0.314141 4.15688 0.514256 3.71824 0.958475 3.48715C1.22364 3.34899 1.52877 3.25636 1.82585 3.21671C2.3029 3.15228 2.41411 3.06368 2.41659 2.57455C2.41845 2.21118 2.41008 1.84719 2.41876 1.48383C2.43982 0.645573 2.97635 0.0765145 3.81089 0.0145594C4.07358 -0.0049565 4.33999 -0.00464655 4.60299 0.0142498C4.90873 0.0362439 5.11133 0.26393 5.09615 0.529408C5.08159 0.786831 4.88086 0.975484 4.58688 0.991282C4.38924 1.0015 4.19036 0.992212 3.99211 0.99624C3.56214 1.00491 3.41314 1.14958 3.40756 1.57273C3.40261 1.94756 3.41035 2.32208 3.40539 2.69629C3.39393 3.54507 2.87661 4.10701 2.03897 4.18693C1.33702 4.25384 1.14465 4.46511 1.14465 5.17449C1.14465 11.4425 1.14403 17.7111 1.14558 23.9794C1.14589 25.094 2.00397 25.8266 3.07641 25.6339C3.66034 25.5286 4.01813 25.1368 4.18107 24.6092C4.35888 24.0346 4.46854 23.4361 4.5748 22.8416C5.3672 18.4121 6.15156 13.9808 6.93839 9.55039C7.05207 8.91132 7.167 8.27225 7.28038 7.63319C7.46284 6.60597 8.1081 6.06479 9.15731 6.06448C15.0842 6.06386 21.0115 6.06417 26.9381 6.06417C27.0692 6.06417 27.2002 6.06417 27.3542 6.06417C27.3542 5.62955 27.3848 5.2126 27.3449 4.80307C27.3099 4.44311 27.0307 4.22999 26.664 4.19994C26.5326 4.18941 26.3997 4.1922 26.2678 4.1922C21.9383 4.19158 17.6089 4.19158 13.2792 4.19158C12.3012 4.19158 11.9174 3.93044 11.5553 3.02031C11.3642 2.53954 11.1755 2.05846 10.9853 1.57831C10.765 1.02195 10.7282 0.996549 10.1424 0.996549C9.12881 0.996549 8.11522 0.996858 7.10195 0.995929C6.99198 0.995929 6.87953 1.00027 6.77266 0.980131C6.5236 0.933354 6.35105 0.757402 6.38946 0.523212C6.41796 0.350357 6.57316 0.170996 6.71999 0.0548306C6.81355 -0.0188961 6.99477 0.00650608 7.13664 0.00650608C10.6507 0.00402788 14.1651 0.00402755 17.6796 0.00495688C18.6349 0.00526665 19.0407 0.280658 19.387 1.15732C19.6215 1.75054 19.8672 2.33912 20.0865 2.93822C20.1643 3.15104 20.2739 3.21176 20.4951 3.21083C22.478 3.20184 24.4612 3.20432 26.444 3.20556C27.6636 3.20649 28.3643 3.91092 28.3677 5.13608C28.3687 5.43161 28.3681 5.72744 28.3681 6.06417C28.5319 6.06417 28.671 6.06417 28.8104 6.06417C29.912 6.06417 31.0138 6.06386 32.1154 6.06448C33.0633 6.0651 33.6311 6.47369 33.9443 7.37638C33.9542 7.40519 33.9815 7.42718 34.0007 7.45228C34.0007 7.65084 34.0007 7.8491 34.0007 8.04735C33.87 8.7363 33.73 9.42338 33.611 10.1145C33.1581 12.7383 32.7139 15.3633 32.2595 17.9871C32.2325 18.1439 32.1879 18.3582 32.0779 18.4255C31.9233 18.5196 31.6805 18.5655 31.511 18.5141C31.2846 18.445 31.2177 18.2126 31.2601 17.9658C31.4568 16.8273 31.6476 15.6877 31.8434 14.5492C32.2241 12.3371 32.607 10.1259 32.9877 7.91384C33.059 7.4975 32.7786 7.11989 32.3558 7.06289C32.2365 7.04678 32.1139 7.05359 31.9927 7.05359C24.4249 7.05328 16.8571 7.05328 9.28896 7.05328C8.53993 7.05359 8.34941 7.22583 8.21869 7.96495C7.52572 11.8867 6.82811 15.8079 6.13111 19.7296C5.86161 21.246 5.60697 22.7651 5.30927 24.2762C5.21727 24.7424 5.00569 25.1848 4.83563 25.6761C4.91555 25.6761 5.03017 25.6761 5.14478 25.6761C13.1091 25.6761 21.0738 25.6761 29.0381 25.6758C29.8042 25.6758 29.9786 25.5004 30.1031 24.7275C30.3382 23.2722 30.5929 21.82 30.8453 20.3671C30.9076 20.0103 31.1328 19.8331 31.4308 19.8805C31.7226 19.9263 31.8791 20.1611 31.8177 20.5329C31.5934 21.8897 31.3561 23.2446 31.1251 24.6002C31.0916 24.7957 31.0646 24.9918 31.0349 25.1876C30.92 25.9446 30.3271 26.5348 29.5681 26.6333C29.3615 26.6602 29.1512 26.6658 28.9421 26.6658C20.405 26.6674 11.8675 26.667 3.33043 26.667C1.43522 26.667 0.784381 26.2111 0.154297 24.4413C0.154297 17.8307 0.154297 11.2201 0.154297 4.60946ZM19.1284 3.20463C18.8883 2.59282 18.6544 2.03802 18.4543 1.47206C18.3276 1.11426 18.1074 0.987876 17.7347 0.990044C15.8863 1.00213 14.0375 0.99562 12.1894 0.996549C12.0841 0.996549 11.9787 1.0077 11.8297 1.01607C12.0683 1.62044 12.3049 2.18423 12.5122 2.75917C12.6324 3.09249 12.8443 3.21299 13.1866 3.20866C14.0775 3.19658 14.969 3.20432 15.8602 3.20432C16.9265 3.20463 17.993 3.20463 19.1284 3.20463Z" fill="#3F3F3F"/>
<path fill-rule="evenodd" clip-rule="evenodd" d="M11.8547 23.0817C10.8101 23.082 9.76556 23.0808 8.72069 23.0827C8.42392 23.0836 8.19809 22.9885 8.14636 22.6654C8.09494 22.3448 8.30497 22.1097 8.6705 22.0954C9.05493 22.0808 9.43998 22.0904 9.82504 22.0904C11.4857 22.0904 13.1461 22.0904 14.8065 22.0904C14.8945 22.0904 14.9828 22.0864 15.0705 22.0929C15.3991 22.1171 15.616 22.3219 15.6113 22.5991C15.6064 22.8794 15.3908 23.0777 15.0547 23.0793C13.9881 23.0848 12.9216 23.0811 11.8547 23.0817Z" fill="#3F3F3F"/>
<path fill-rule="evenodd" clip-rule="evenodd" d="M11.4592 20.141C12.1076 20.141 12.7559 20.1373 13.404 20.1423C13.781 20.1454 13.9792 20.317 13.982 20.6249C13.9848 20.93 13.7828 21.1264 13.4157 21.1286C12.1082 21.136 10.8006 21.136 9.49305 21.1283C9.13031 21.1264 8.92647 20.9242 8.93174 20.62C8.93732 20.3133 9.13464 20.1451 9.51412 20.1423C10.1628 20.1376 10.8108 20.1407 11.4592 20.141Z" fill="#3F3F3F"/>
</svg>
