<svg width="138" height="89" viewBox="0 0 138 89" fill="none" xmlns="http://www.w3.org/2000/svg">
<path d="M21.3168 80.0191C21.3168 80.0191 17.1504 73.1705 9.5501 69.1085C1.99562 65.0466 -1.25509 61.0791 2.68239 61.3152C7.44401 61.5986 18.2492 65.5189 23.1482 79.2634C25.2543 85.1674 21.3168 80.0191 21.3168 80.0191Z" fill="#E8505B" stroke="#263238" stroke-miterlimit="10" stroke-linecap="round" stroke-linejoin="round"/>
<path d="M21.0431 78.2242C21.0431 78.2242 17.243 70.4309 10.1006 66.6523" stroke="#263238" stroke-miterlimit="10" stroke-linecap="round" stroke-linejoin="round"/>
<path d="M25.8488 84.7422C25.8488 84.7422 23.468 77.8463 24.8873 70.053C26.3066 62.2598 25.3909 57.631 23.3306 60.6539C20.8582 64.2907 17.516 74.3984 24.2463 85.6869C27.1765 90.5518 25.8488 84.7422 25.8488 84.7422Z" fill="#E8505B" stroke="#263238" stroke-miterlimit="10" stroke-linecap="round" stroke-linejoin="round"/>
<path d="M24.7508 83.5618C24.7508 83.5618 21.5001 76.4297 22.8736 69.0615" stroke="#263238" stroke-miterlimit="10" stroke-linecap="round" stroke-linejoin="round"/>
<path d="M21.6359 76.5708C21.6359 76.5708 19.2551 69.675 20.6744 61.8817C22.0937 54.0884 21.178 49.4596 19.1177 52.4825C16.6454 56.1193 13.3031 66.227 20.0334 77.5155C22.9636 82.3331 21.6359 76.5708 21.6359 76.5708Z" fill="#E8505B" stroke="#263238" stroke-miterlimit="10" stroke-linecap="round" stroke-linejoin="round"/>
<path d="M21.041 78.2243C21.041 78.2243 17.2409 68.2583 18.6602 60.8901" stroke="#263238" stroke-miterlimit="10" stroke-linecap="round" stroke-linejoin="round"/>
<path d="M116.683 71.4708C116.683 71.4708 120.849 64.6221 128.45 60.5602C136.004 56.4982 139.255 52.5307 135.317 52.7669C130.556 53.0503 119.751 56.9705 114.852 70.7151C112.7 76.6191 116.683 71.4708 116.683 71.4708Z" fill="#A33840" stroke="#263238" stroke-miterlimit="10" stroke-linecap="round" stroke-linejoin="round"/>
<path d="M116.911 69.6759C116.911 69.6759 120.711 61.8826 127.854 58.104" stroke="#263238" stroke-miterlimit="10" stroke-linecap="round" stroke-linejoin="round"/>
<path d="M112.107 76.1929C112.107 76.1929 114.488 69.297 113.068 61.5037C111.649 53.7104 112.565 49.0817 114.625 52.1045C117.097 55.7414 120.44 65.8491 113.709 77.1375C110.779 82.0024 112.107 76.1929 112.107 76.1929Z" fill="#A33840" stroke="#263238" stroke-miterlimit="10" stroke-linecap="round" stroke-linejoin="round"/>
<path d="M113.204 75.0115C113.204 75.0115 116.455 67.8794 115.081 60.5112" stroke="#263238" stroke-miterlimit="10" stroke-linecap="round" stroke-linejoin="round"/>
<path d="M116.362 68.0225C116.362 68.0225 118.742 61.1266 117.323 53.3333C115.904 45.54 116.819 40.9113 118.88 43.9341C121.352 47.571 124.694 57.6787 117.964 68.9671C115.034 73.7848 116.362 68.0225 116.362 68.0225Z" fill="#A33840" stroke="#263238" stroke-miterlimit="10" stroke-linecap="round" stroke-linejoin="round"/>
<path d="M116.91 69.676C116.91 69.676 120.71 59.71 119.291 52.3418" stroke="#263238" stroke-miterlimit="10" stroke-linecap="round" stroke-linejoin="round"/>
<path d="M118.606 47.0039H75.0645L50.707 7.09277H94.2483L118.606 47.0039Z" fill="#263238" stroke="#263238" stroke-miterlimit="10" stroke-linecap="round" stroke-linejoin="round"/>
<path d="M68.9762 45.6343H24.3818V86.3011H68.9762V45.6343Z" fill="#C7C7C7" stroke="#263238" stroke-miterlimit="10" stroke-linecap="round" stroke-linejoin="round"/>
<path d="M113.617 86.3008H69.0225V45.634L91.6859 8.4624L113.617 45.634V86.3008Z" fill="white" stroke="#263238" stroke-miterlimit="10" stroke-linecap="round" stroke-linejoin="round"/>
<path d="M78.6355 52.9541H74.1943V66.7459H78.6355V52.9541Z" fill="#C7C7C7" stroke="#263238" stroke-miterlimit="10" stroke-linecap="round" stroke-linejoin="round"/>
<path d="M83.1228 52.9541H78.6816V66.7459H83.1228V52.9541Z" fill="#263238" stroke="#263238" stroke-miterlimit="10" stroke-linecap="round" stroke-linejoin="round"/>
<path d="M87.5632 52.9541H83.1221V66.7459H87.5632V52.9541Z" fill="#C7C7C7" stroke="#263238" stroke-miterlimit="10" stroke-linecap="round" stroke-linejoin="round"/>
<path d="M58.2144 52.9551H54.5059V66.7468H58.2144V52.9551Z" fill="#919191" stroke="#263238" stroke-miterlimit="10" stroke-linecap="round" stroke-linejoin="round"/>
<path d="M61.9234 52.9551H58.2148V66.7468H61.9234V52.9551Z" fill="#263238" stroke="#263238" stroke-miterlimit="10" stroke-linecap="round" stroke-linejoin="round"/>
<path d="M65.6314 52.9551H61.9229V66.7468H65.6314V52.9551Z" fill="#919191" stroke="#263238" stroke-miterlimit="10" stroke-linecap="round" stroke-linejoin="round"/>
<path d="M30.7007 52.9541H26.9922V66.7459H30.7007V52.9541Z" fill="#919191" stroke="#263238" stroke-miterlimit="10" stroke-linecap="round" stroke-linejoin="round"/>
<path d="M34.4097 52.9541H30.7012V66.7459H34.4097V52.9541Z" fill="#263238" stroke="#263238" stroke-miterlimit="10" stroke-linecap="round" stroke-linejoin="round"/>
<path d="M38.1636 52.9541H34.4551V66.7459H38.1636V52.9541Z" fill="#919191" stroke="#263238" stroke-miterlimit="10" stroke-linecap="round" stroke-linejoin="round"/>
<path d="M101.345 52.9541H96.9043V66.7459H101.345V52.9541Z" fill="#C7C7C7" stroke="#263238" stroke-miterlimit="10" stroke-linecap="round" stroke-linejoin="round"/>
<path d="M105.786 52.9541H101.345V66.7459H105.786V52.9541Z" fill="#263238" stroke="#263238" stroke-miterlimit="10" stroke-linecap="round" stroke-linejoin="round"/>
<path d="M110.273 52.9541H105.832V66.7459H110.273V52.9541Z" fill="#C7C7C7" stroke="#263238" stroke-miterlimit="10" stroke-linecap="round" stroke-linejoin="round"/>
<path d="M90.9545 30.3311H87.9785V38.7856H90.9545V30.3311Z" fill="#C7C7C7" stroke="#263238" stroke-miterlimit="10" stroke-linecap="round" stroke-linejoin="round"/>
<path d="M93.9311 30.3311H90.9551V38.7856H93.9311V30.3311Z" fill="#263238" stroke="#263238" stroke-miterlimit="10" stroke-linecap="round" stroke-linejoin="round"/>
<path d="M96.9057 30.3311H93.9297V38.7856H96.9057V30.3311Z" fill="#C7C7C7" stroke="#263238" stroke-miterlimit="10" stroke-linecap="round" stroke-linejoin="round"/>
<path d="M21.9102 47.0039H69.801L94.1585 7.09277H46.2676L21.9102 47.0039Z" fill="#D81E05" stroke="#263238" stroke-miterlimit="10" stroke-linecap="round" stroke-linejoin="round"/>
<path d="M59.3153 25.1357H40.4062V38.0301H59.3153V25.1357Z" fill="#C7C7C7" stroke="#263238" stroke-miterlimit="10" stroke-linecap="round" stroke-linejoin="round"/>
<path d="M59.3154 25.1354L72.4099 15.8779L59.3154 38.0298V25.1354Z" fill="white" stroke="#263238" stroke-miterlimit="10" stroke-linecap="round" stroke-linejoin="round"/>
<path d="M38.8955 25.5605H58.7203L72.4099 15.8779H52.5851L38.8955 25.5605Z" fill="#D81E05" stroke="#263238" stroke-miterlimit="10" stroke-linecap="round" stroke-linejoin="round"/>
<path d="M48.0073 27.8745H45.0312V36.329H48.0073V27.8745Z" fill="#919191" stroke="#263238" stroke-miterlimit="10" stroke-linecap="round" stroke-linejoin="round"/>
<path d="M50.9848 27.8745H48.0088V36.329H50.9848V27.8745Z" fill="#263238" stroke="#263238" stroke-miterlimit="10" stroke-linecap="round" stroke-linejoin="round"/>
<path d="M53.9584 27.8745H50.9824V36.329H53.9584V27.8745Z" fill="#919191" stroke="#263238" stroke-miterlimit="10" stroke-linecap="round" stroke-linejoin="round"/>
<path d="M82.6229 1H80.9746V13.5637L82.6229 10.777V1Z" fill="white" stroke="#263238" stroke-miterlimit="10" stroke-linecap="round" stroke-linejoin="round"/>
<path d="M81.0191 1H76.1201V13.5165H81.0191V1Z" fill="#C7C7C7" stroke="#263238" stroke-miterlimit="10" stroke-linecap="round" stroke-linejoin="round"/>
<path d="M52.4472 55.2695H41.001V86.301H52.4472V55.2695Z" fill="#263238" stroke="#263238" stroke-miterlimit="10" stroke-linecap="round" stroke-linejoin="round"/>
<path d="M51.8065 70.7613C51.8065 70.1945 51.3487 69.7222 50.7993 69.7222C50.2498 69.7222 49.792 70.1945 49.792 70.7613C49.792 71.328 50.2498 71.8004 50.7993 71.8004C51.3945 71.8004 51.8065 71.328 51.8065 70.7613Z" fill="white" stroke="#263238" stroke-miterlimit="10" stroke-linecap="round" stroke-linejoin="round"/>
<line x1="1.75703" y1="87.4495" x2="136.449" y2="87.4495" stroke="black" stroke-width="1.1" stroke-linecap="round"/>
</svg>
