<svg width="98" height="21" viewBox="0 0 98 21" fill="none" xmlns="http://www.w3.org/2000/svg">
<path fill-rule="evenodd" clip-rule="evenodd" d="M29.7221 5.06348L32.2313 10.3785L34.7406 5.06348H38.5344V15.6935H34.7406V10.3785L32.2313 15.6935L29.7221 10.3785V15.6935H25.9277V5.06348H29.7221Z" fill="#D81E05"/>
<path fill-rule="evenodd" clip-rule="evenodd" d="M39.752 15.6945L42.7029 5.06348H49.4072L52.3577 15.6945H48.5633L48.0796 13.9495H44.0296L43.5458 15.6945H39.752ZM46.055 6.65598L44.5148 12.2055H47.5953L46.055 6.65598Z" fill="#D81E05"/>
<path fill-rule="evenodd" clip-rule="evenodd" d="M60.6679 5.06959C62.3222 5.06959 63.6629 6.45609 63.6629 8.16759C63.6629 9.87909 62.3222 11.2661 60.6679 11.2661H57.3602V15.6941H53.5664V5.06909H60.6679V5.06959ZM58.2476 6.28659C59.1025 6.28659 59.9338 6.76009 59.9338 7.72309C59.9338 8.68659 59.2001 9.46709 58.2476 9.46709H57.425V6.28659H58.2476Z" fill="#D81E05"/>
<path fill-rule="evenodd" clip-rule="evenodd" d="M64.9805 5.06348H75.0673V6.80898L68.7743 6.80848V9.51198H75.0673V11.256H68.7743V15.6945H64.9805V5.06348Z" fill="#D81E05"/>
<path fill-rule="evenodd" clip-rule="evenodd" d="M91.7059 13.9495H97.9994V15.6945H87.9121V5.06348H97.9994V6.80898H91.7059V9.51198H97.9994V11.256H91.7059V13.9495Z" fill="#D81E05"/>
<path fill-rule="evenodd" clip-rule="evenodd" d="M86.4886 13.0374V15.6939H82.7575V13.1234C82.759 13.0949 82.7595 13.0659 82.7595 13.0374C82.7595 12.0744 82.0036 11.2934 81.0738 11.2934H80.2512V15.6939L76.3945 15.6949V5.06738H83.9208C85.3393 5.06738 86.4886 6.25688 86.4886 7.72388C86.4886 9.19188 85.3388 10.3809 83.9208 10.3809C85.3108 10.3809 86.4441 11.5224 86.4886 12.9504C86.4895 12.9789 86.4886 13.0079 86.4886 13.0374ZM86.4886 12.9504V13.0374C86.4886 13.0079 86.4895 12.9789 86.4886 12.9504ZM81.0738 6.28738C81.9079 6.28738 82.7595 6.76088 82.7595 7.72388C82.7595 8.68788 82.0051 9.46788 81.0738 9.46788H80.2512V6.28738H81.0738Z" fill="#D81E05"/>
<path fill-rule="evenodd" clip-rule="evenodd" d="M12.63 6.74452C12.8567 6.84302 13.0157 7.07502 13.0157 7.34552C13.0157 7.48752 12.9717 7.61902 12.8972 7.72602L10.7959 11.469C10.7447 11.5755 10.6383 11.648 10.5151 11.648C10.3894 11.648 10.2817 11.572 10.2319 11.461L8.13151 7.72052C8.06046 7.61502 8.01842 7.48652 8.01842 7.34852C8.01842 7.08752 8.16727 6.86302 8.3804 6.75852C8.39393 6.74802 8.41133 6.73952 8.43501 6.73002C9.08456 6.48752 9.78485 6.35452 10.5156 6.35452C11.2502 6.35452 11.9543 6.48852 12.6058 6.73402C12.615 6.73752 12.6223 6.74052 12.63 6.74452ZM6.45303 7.97202C6.61252 7.84702 6.83483 7.82552 7.01897 7.93552C7.11563 7.99302 7.18715 8.07852 7.22968 8.17652L8.92362 11.2285C8.97485 11.309 8.98162 11.4165 8.93184 11.506C8.88061 11.598 8.78443 11.6455 8.68922 11.6375L5.2883 11.646C5.18778 11.6555 5.08338 11.634 4.98963 11.5775C4.81177 11.471 4.71898 11.272 4.73493 11.074C4.73348 11.06 4.73445 11.0425 4.73831 11.022C4.83691 10.45 5.03119 9.88602 5.32841 9.35352C5.62709 8.81852 6.00406 8.36052 6.4366 7.98452C6.44192 7.97952 6.44723 7.97602 6.45303 7.97202ZM14.5777 7.97202C14.4186 7.84702 14.1959 7.82552 14.0122 7.93552C13.9155 7.99302 13.8435 8.07852 13.801 8.17652L12.108 11.2285C12.0558 11.309 12.0496 11.4165 12.0993 11.506C12.1506 11.598 12.2463 11.6455 12.3419 11.6375L15.7429 11.646C15.8434 11.6555 15.9478 11.634 16.042 11.5775C16.2189 11.471 16.3122 11.272 16.2962 11.074C16.2977 11.06 16.2967 11.0425 16.2929 11.022C16.1943 10.45 16.0005 9.88602 15.7028 9.35352C15.4046 8.81852 15.0266 8.36052 14.5946 7.98452C14.5888 7.97952 14.5835 7.97602 14.5777 7.97202ZM11.0197 12.691V15.949H10.012V12.691C9.53015 12.6905 8.90139 12.6885 8.66409 12.68L5.32116 12.689C5.03795 12.7035 4.74701 12.637 4.48507 12.48C3.97665 12.177 3.70407 11.6165 3.72582 11.0535C3.72678 10.97 3.73548 10.897 3.74515 10.839C3.86404 10.15 4.09844 9.47102 4.45559 8.83202C4.81322 8.19052 5.26752 7.63852 5.78851 7.18602C6.13793 6.91902 6.62702 6.78502 7.07793 6.86702C7.20503 6.42152 7.50371 6.05452 7.89276 5.84452C7.96574 5.80102 8.03533 5.77102 8.09236 5.74952C8.85016 5.46652 9.66692 5.31152 10.5161 5.31152C11.37 5.31152 12.1902 5.46752 12.9509 5.75352C13.3888 5.95152 13.7797 6.36302 13.9436 6.85402C14.3737 6.75202 14.8183 6.85102 15.1682 7.12652C15.6892 7.57902 16.2184 8.19052 16.5761 8.83202C16.9327 9.47052 17.1676 10.15 17.286 10.839C17.2962 10.897 17.3054 10.97 17.3058 11.0535C17.3276 11.6165 17.0545 12.1765 16.5466 12.48C16.2846 12.6365 15.9937 12.7035 15.7105 12.689L12.3676 12.68C12.1293 12.6885 11.501 12.6905 11.0197 12.691Z" fill="#D81E05"/>
<path d="M19.7815 10.5C19.7815 15.7566 15.5673 20 10.3908 20C5.21423 20 1 15.7566 1 10.5C1 5.24341 5.21423 1 10.3908 1C15.5673 1 19.7815 5.24341 19.7815 10.5Z" stroke="#D81E05" stroke-width="2"/>
</svg>
