<svg width="27" height="30" viewBox="0 0 27 30" fill="none" xmlns="http://www.w3.org/2000/svg">
<path fill-rule="evenodd" clip-rule="evenodd" d="M23.0785 0.000706365C23.3312 0.154234 23.6122 0.27715 23.8301 0.468118C24.1752 0.770464 24.2718 1.18913 24.2706 1.63229C24.2675 2.73689 24.2605 3.84196 24.2796 4.94633C24.2825 5.11846 24.3713 5.3292 24.494 5.4533C25.219 6.18585 25.9618 6.90239 26.7076 7.6154C26.9046 7.80354 27.0002 8.00205 27 8.27802C26.9939 14.9831 26.9956 21.6879 26.9947 28.393C26.9947 29.3836 26.3728 29.9918 25.3601 29.9949C24.3369 29.9982 23.3133 30.0095 22.2911 29.9819C22.1159 29.977 21.8837 29.8324 21.7935 29.6853C21.7225 29.5699 21.776 29.3097 21.8731 29.1898C21.9631 29.0782 22.1834 29.0212 22.3475 29.0186C23.3479 29.0038 24.3488 29.0132 25.3494 29.0102C25.8057 29.0087 25.9822 28.8378 25.9822 28.3949C25.9834 21.8758 25.9829 15.357 25.9827 8.83774C25.9827 8.77322 25.9768 8.70846 25.9718 8.5985C25.8459 8.5985 25.7273 8.5985 25.6084 8.5985C24.1467 8.5985 22.6852 8.5992 21.2234 8.59826C20.6803 8.59803 20.519 8.44214 20.5186 7.91633C20.5176 6.50539 20.5183 5.09444 20.5181 3.68325C20.5181 3.56434 20.5181 3.44543 20.5181 3.28201C20.3796 3.28201 20.2605 3.28201 20.1417 3.28201C14.801 3.28201 9.46014 3.28201 4.11949 3.28201C3.52864 3.28201 3.38172 3.424 3.38123 3.99478C3.38051 4.77137 3.38293 5.54819 3.38002 6.32478C3.37857 6.70672 3.18469 6.92806 2.86832 6.92288C2.56794 6.91793 2.37212 6.69753 2.37042 6.33985C2.36606 5.48673 2.36026 4.63338 2.37187 3.78027C2.38349 2.93704 3.0305 2.30103 3.89317 2.30033C9.57125 2.29515 15.2493 2.29515 20.9274 2.30763C21.114 2.3081 21.3403 2.42042 21.4802 2.54993C22.0573 3.08374 22.6084 3.64393 23.2116 4.23685C23.2341 4.10522 23.2557 4.0374 23.2559 3.96935C23.2584 3.19276 23.261 2.41618 23.2562 1.63959C23.253 1.15923 23.072 0.985215 22.5825 0.985215C15.6114 0.984273 8.64031 0.984273 1.66919 0.98498C1.18412 0.98498 1.01323 1.14675 1.01299 1.60851C1.01226 9.76809 1.01226 17.9281 1.01299 26.0877C1.01299 26.5485 1.18582 26.7094 1.66944 26.7129C1.8914 26.7145 2.1136 26.7131 2.36873 26.7131C2.36873 26.5539 2.36873 26.4258 2.36873 26.2978C2.36873 20.5334 2.36873 14.769 2.36873 9.00492C2.36873 8.47511 2.52969 8.2361 2.88236 8.24011C3.23358 8.24388 3.38075 8.47252 3.38075 9.01505C3.38075 15.4248 3.38075 21.8344 3.38075 28.2442C3.38075 28.8832 3.51146 29.0102 4.16742 29.0104C5.12329 29.0106 19.0244 29.0095 19.98 29.0111C20.3944 29.0118 20.529 29.2025 20.52 29.5129C20.5113 29.8117 20.385 29.9932 19.9894 29.9942C18.9552 29.9965 4.97515 30.0006 3.94086 29.993C3.0167 29.9864 2.38107 29.3596 2.36921 28.458C2.36606 28.219 2.36873 27.98 2.36873 27.6976C2.08262 27.6976 1.81709 27.7014 1.55156 27.6969C0.644102 27.6819 0.00217833 27.0616 0.00193628 26.1786C-0.000726298 17.9642 0.000484105 9.74948 0 1.53528C0 0.717012 0.469582 0.254781 1.21801 0C8.50525 0.000706416 15.792 0.000706365 23.0785 0.000706365ZM25.1159 7.59539C23.9339 6.44793 22.727 5.27646 21.5507 4.13442C21.5507 5.24302 21.5507 6.41567 21.5507 7.59539C22.7759 7.59539 23.9806 7.59539 25.1159 7.59539Z" fill="#3F3F3F"/>
<path fill-rule="evenodd" clip-rule="evenodd" d="M11.8896 12.8687C13.1013 12.8687 14.3129 12.8677 15.5245 12.8693C15.9767 12.87 16.2013 13.0496 16.2005 13.4004C16.1998 13.7484 15.9672 13.939 15.523 13.9393C13.0882 13.9411 10.6531 13.9414 8.21833 13.939C7.78648 13.9388 7.55033 13.7312 7.56089 13.381C7.57093 13.0445 7.79075 12.8703 8.21983 12.8695C9.44302 12.8675 10.6665 12.8687 11.8896 12.8687Z" fill="#3F3F3F"/>
<path fill-rule="evenodd" clip-rule="evenodd" d="M14.5953 17.1582C16.5642 17.1582 18.5331 17.1571 20.502 17.1587C21.2368 17.1595 21.6018 17.3391 21.6005 17.6899C21.5993 18.0378 21.2213 18.2285 20.4995 18.2287C16.543 18.2305 12.586 18.2308 8.62944 18.2285C7.92769 18.2282 7.54395 18.0207 7.5611 17.6704C7.57743 17.3339 7.93463 17.1597 8.63188 17.1589C10.6196 17.1569 12.6076 17.1582 14.5953 17.1582Z" fill="#3F3F3F"/>
<path fill-rule="evenodd" clip-rule="evenodd" d="M19.9881 12.8703C20.3521 12.8706 20.7164 12.8644 21.0804 12.8726C21.3859 12.8792 21.5873 13.0831 21.5989 13.3756C21.6109 13.6815 21.4062 13.9265 21.0898 13.9318C20.3512 13.9441 19.612 13.9431 18.8734 13.9324C18.5507 13.9275 18.3539 13.6999 18.3595 13.386C18.3653 13.0701 18.5598 12.8777 18.8958 12.8716C19.2598 12.8652 19.6238 12.8703 19.9881 12.8703Z" fill="#3F3F3F"/>
</svg>
